<svg width="200" height="130" viewBox="0 0 200 130" fill="none" xmlns="http://www.w3.org/2000/svg">
<g clip-path="url(#clip0_515_652)">
<path d="M41.4744 41.0356H51.9983C56.2858 41.0356 59.5306 43.4101 59.5306 48.2958C59.5306 53.1814 56.2858 55.5266 51.9983 55.5266H47.1261V59.3667H41.4744V41.0356ZM47.1261 45.9213V50.6409H51.4136C51.7338 50.6902 52.061 50.6653 52.3701 50.5683C52.6793 50.4714 52.9622 50.3048 53.1973 50.0813C53.4324 49.8578 53.6134 49.5834 53.7264 49.279C53.8395 48.9746 53.8817 48.6483 53.8497 48.3251C53.8807 47.9983 53.8386 47.6687 53.7266 47.3602C53.6145 47.0518 53.4353 46.7723 53.202 46.542C52.9686 46.3118 52.687 46.1366 52.3777 46.0292C52.0683 45.9218 51.739 45.885 51.4136 45.9213H47.1261Z" fill="#171717"/>
<path d="M84.4078 41.0356H90.0693V59.3667H84.4078V41.0356Z" fill="#171717"/>
<path d="M93.0608 41.0356H98.7125L105.923 50.807V41.0356H111.633V59.3667H105.923L98.7125 49.7712V59.3765H93.0608V41.0356Z" fill="#171717"/>
<path d="M119.429 45.9213H113.582V41.0356H130.927V45.9213H125.081V59.3667H119.429V45.9213Z" fill="#171717"/>
<path d="M134.474 53.0154C137.017 54.3621 139.834 55.1043 142.708 55.1847C144.248 55.1847 145.154 54.8231 145.154 54.2564C145.154 52.3021 133.276 52.9177 133.276 46.1462C133.276 42.8923 136.472 40.4299 142.045 40.4299C147.619 40.4299 150.328 42.648 150.328 42.648L148.028 46.8399C146.02 45.8291 143.815 45.2721 141.568 45.2081C140.058 45.2081 139.054 45.5697 139.054 46.1853C139.054 48.1395 150.923 47.4067 150.923 54.3932C150.923 57.0608 148.389 60.0215 142.494 60.0215C139.092 60.0377 135.729 59.3038 132.642 57.8718L134.474 53.0154Z" fill="#171717"/>
<path d="M63.8864 70.3499H79.4772V75.2355H69.4991V78.6848H78.269V83.2774H69.4991V88.6809H63.8864V70.3499Z" fill="#171717"/>
<path d="M94.2301 70.3499L98.4006 83.2285H99.1022L103.273 70.3499H109.314L102.688 88.6809H94.8927L88.2471 70.3499H94.2301Z" fill="#171717"/>
<path d="M111.351 70.3499H117.012V88.6809H111.351V70.3499Z" fill="#171717"/>
<path d="M120.004 70.3499H135.595V75.2355H125.656V77.5123H134.747V81.5185H125.656V83.7952H135.575V88.6809H119.984L120.004 70.3499Z" fill="#171717"/>
<path d="M143.371 70.3499L146.148 81.7139L148.847 70.3499H154.021L156.72 81.7433L159.507 70.3499H165.5L160.355 88.6809H153.963L151.458 79.6131L148.944 88.6809H142.562L137.397 70.3499H143.371Z" fill="#171717"/>
<path d="M71.6331 60.9302C77.3968 60.9302 82.0692 56.2448 82.0692 50.4651C82.0692 44.6854 77.3968 40 71.6331 40C65.8693 40 61.1969 44.6854 61.1969 50.4651C61.1969 56.2448 65.8693 60.9302 71.6331 60.9302Z" fill="#C15191"/>
<path d="M50.9362 90.0001C56.6999 90.0001 61.3723 85.3147 61.3723 79.5349C61.3723 73.7552 56.6999 69.0698 50.9362 69.0698C45.1724 69.0698 40.5 73.7552 40.5 79.5349C40.5 85.3147 45.1724 90.0001 50.9362 90.0001Z" fill="#C15191"/>
<path d="M50.2248 52.3412C52.4905 52.3412 54.3271 50.4995 54.3271 48.2275C54.3271 45.9556 52.4905 44.1138 50.2248 44.1138C47.9591 44.1138 46.1224 45.9556 46.1224 48.2275C46.1224 50.4995 47.9591 52.3412 50.2248 52.3412Z" fill="#C15191"/>
</g>
<defs>
<clipPath id="clip0_515_652">
<rect width="125" height="50" fill="white" transform="translate(40.5 40)"/>
</clipPath>
</defs>
</svg>
