<svg width="199" height="130" viewBox="0 0 199 130" fill="none" xmlns="http://www.w3.org/2000/svg">
<g clip-path="url(#clip0_576_2190)">
<path d="M70.2458 61.1376C76.2916 61.1376 81.1927 56.4058 81.1927 50.5688C81.1927 44.7318 76.2916 40 70.2458 40C64.1999 40 59.2988 44.7318 59.2988 50.5688C59.2988 56.4058 64.1999 61.1376 70.2458 61.1376Z" fill="#C15191"/>
<path d="M46.0949 46.2067H40V41.2778H58.1256V46.2067H52.0208V59.7732H46.0551L46.0949 46.2067Z" fill="#171717"/>
<path d="M102.739 59.7732H96.773V55.2575C95.5248 55.8037 94.1658 56.0729 92.7959 56.0453C87.0291 56.0453 83.6884 53.5857 83.6884 48.013V41.2874H89.654V48.2532C89.654 50.3766 90.8471 51.3182 92.9649 51.3182C94.288 51.3253 95.5959 51.0462 96.7929 50.5015V41.2778H102.759L102.739 59.7732Z" fill="#171717"/>
<path d="M105.622 41.2778H111.588V48.1091H113.805L118.398 41.2778H125.04L118.677 50.1076L125.507 59.7732H118.548L113.696 52.7402H111.508V59.7732H105.622V41.2778Z" fill="#171717"/>
<path d="M146.765 59.7732H140.849V50.0788L133.293 59.7732H127.327V41.2778H133.293V51.1164L140.849 41.2778H146.765V59.7732Z" fill="#171717"/>
<path d="M46.6914 78.3261H49.8234C51.3347 78.3261 52.2991 77.4902 52.2991 76.4045C52.2991 75.3188 51.3049 74.7039 49.4157 74.7039C47.5266 74.7039 46.075 75.5686 46.075 76.9041L40.5568 76.5102C41.044 72.667 43.9075 70.2266 49.9825 70.2266C54.9538 70.2266 57.7676 72.3691 57.7676 75.4245C57.804 76.3748 57.5375 77.313 57.004 78.1121C56.4705 78.9111 55.6958 79.5326 54.7848 79.8922C57.0816 80.584 58.563 81.9675 58.563 84.456C58.563 87.6651 55.7791 90.0094 50.1913 90.0094C43.8279 89.9614 41.044 87.5306 40.5568 83.7066L46.075 83.2358C46.075 84.4944 47.6062 85.4264 49.6444 85.4264C51.6827 85.4264 52.8161 84.7923 52.8161 83.6009C52.8161 82.5632 51.5335 81.8522 49.7041 81.8522H46.7213L46.6914 78.3261Z" fill="#171717"/>
<path d="M61.1979 70.8511H72.2244C76.7185 70.8511 80.109 73.2531 80.109 78.182C80.109 83.1109 76.7185 85.484 72.2244 85.484H67.1238V89.3272H61.1581L61.1979 70.8511ZM67.1635 75.7896V80.5936H71.6477C73.0099 80.5936 74.203 80.0555 74.203 78.2588C74.2347 77.929 74.19 77.5966 74.072 77.2856C73.9541 76.9746 73.7659 76.6929 73.5212 76.4611C73.2764 76.2292 72.9813 76.0529 72.6572 75.9451C72.3332 75.8372 71.9883 75.8005 71.6477 75.8376L67.1635 75.7896Z" fill="#171717"/>
<path d="M82.4455 70.8511H98.7615V75.7896H88.3714V78.0859H97.8866V82.1309H88.3714V84.4176H98.7615V89.3561H82.4455V70.8511Z" fill="#171717"/>
<path d="M115.286 82.5728H107.531V89.3561H101.645V70.8511H107.611V77.6439H115.366V70.8511H121.332V89.3561H115.366L115.286 82.5728Z" fill="#171717"/>
<path d="M143.454 89.3561H137.488V79.6616L129.932 89.3561H124.056V70.8511H129.972V80.6993L137.528 70.8511H143.494L143.454 89.3561Z" fill="#171717"/>
<path d="M165 89.3561H159.034V84.8211H155.714L152.472 89.3561H145.512L150.026 83.5913C148.762 83.1304 147.681 82.2948 146.938 81.2041C146.195 80.1133 145.828 78.8235 145.89 77.5191C145.89 72.7151 149.211 70.7935 153.576 70.7935H164.98L165 89.3561ZM154.133 75.7896C153.827 75.7554 153.517 75.7877 153.225 75.884C152.934 75.9803 152.669 76.1383 152.449 76.3463C152.229 76.5544 152.059 76.8074 151.953 77.0867C151.847 77.3661 151.807 77.6648 151.836 77.961C151.836 79.3926 152.701 80.0267 154.133 80.0267H159.104V75.7896H154.133Z" fill="#171717"/>
<path d="M69.9873 82.208C72.365 82.208 74.2925 80.3497 74.2925 78.0574C74.2925 75.765 72.365 73.9067 69.9873 73.9067C67.6096 73.9067 65.6821 75.765 65.6821 78.0574C65.6821 80.3497 67.6096 82.208 69.9873 82.208Z" fill="#C15191"/>
<path d="M155.644 81.795C158.022 81.795 159.949 79.9366 159.949 77.6443C159.949 75.352 158.022 73.4937 155.644 73.4937C153.266 73.4937 151.339 75.352 151.339 77.6443C151.339 79.9366 153.266 81.795 155.644 81.795Z" fill="#C15191"/>
</g>
<defs>
<clipPath id="clip0_576_2190">
<rect width="125" height="50" fill="white" transform="translate(40 40)"/>
</clipPath>
</defs>
</svg>
