<svg width="880" height="223" viewBox="0 0 880 223" fill="none" xmlns="http://www.w3.org/2000/svg">
<path d="M770 3.00002C830.75 3.00003 880 52.25 880 113C880 173.75 830.75 223 770 223" fill="#799FCC"/>
<path d="M660 3L770 113L660 223L550 113L660 3Z" fill="#198F76"/>
<path d="M550 223C489.25 223 440 173.75 440 113C440 52.25 489.25 3 550 3" fill="#799FCC"/>
<ellipse cx="330" cy="110" rx="110" ry="110" fill="#198F76"/>
<path d="M110 2.09011e-05C170.75 2.6212e-05 220 49.25 220 110C220 170.75 170.75 220 110 220" fill="#C15191"/>
<path d="M1.9233e-05 3.00002C60.75 3.00003 110 52.25 110 113C110 173.75 60.75 223 0 223" fill="#C15191"/>
</svg>
