<svg width="1180" height="160" viewBox="0 0 1180 160" fill="none" xmlns="http://www.w3.org/2000/svg">
<circle cx="723" cy="33" r="32" fill="#171717"/>
<circle cx="733" cy="13" r="10" fill="white"/>
<path d="M25.9512 65C20.2542 65 15.4718 63.8573 11.6038 61.5719C7.76586 59.2865 4.8724 56.1849 2.92344 52.2671C0.974481 48.3196 0 43.8676 0 38.911V1.33562H11.6938V39.0445C11.6938 44.0902 12.9681 47.8596 15.5167 50.3527C18.0654 52.8459 21.5435 54.0925 25.9512 54.0925C30.3588 54.0925 33.822 52.8459 36.3406 50.3527C38.8893 47.8596 40.1636 44.0902 40.1636 39.0445V1.33562H51.9023V38.911C51.9023 43.8676 50.9279 48.3196 48.9789 52.2671C47.0299 56.1849 44.1365 59.2865 40.2985 61.5719C36.4606 63.8573 31.6781 65 25.9512 65Z" fill="#171717"/>
<path d="M67.4296 63.6644V1.33562H78.7636L108.583 44.2534V1.33562H119.962V63.6644H108.628L78.8085 20.2123V63.6644H67.4296Z" fill="#171717"/>
<path d="M157.47 63.6644V1.33562H168.803L198.623 44.2534V1.33562H210.002V63.6644H198.668L168.848 20.2123V63.6644H157.47Z" fill="#171717"/>
<path d="M255.269 65C250.502 65 246.079 64.1838 242.001 62.5514C237.953 60.8893 234.43 58.589 231.432 55.6507C228.434 52.7123 226.11 49.2694 224.461 45.3219C222.811 41.3744 221.987 37.1005 221.987 32.5C221.987 27.8699 222.811 23.581 224.461 19.6336C226.11 15.6861 228.434 12.2431 231.432 9.30479C234.43 6.36644 237.953 4.08105 242.001 2.44863C246.079 0.816209 250.502 0 255.269 0C260.007 0 264.399 0.83105 268.447 2.49315C272.495 4.15525 276.018 6.47032 279.017 9.43836C282.015 12.4064 284.354 15.8642 286.033 19.8116C287.712 23.7295 288.551 27.9589 288.551 32.5C288.551 37.1005 287.712 41.3744 286.033 45.3219C284.354 49.2694 282.015 52.7123 279.017 55.6507C276.018 58.589 272.495 60.8893 268.447 62.5514C264.399 64.1838 260.007 65 255.269 65ZM255.269 54.0925C258.238 54.0925 260.996 53.5879 263.545 52.5788C266.123 51.54 268.357 50.0856 270.246 48.2158C272.165 46.3162 273.649 44.0457 274.699 41.4041C275.778 38.7329 276.318 35.7648 276.318 32.5C276.318 28.137 275.388 24.3379 273.529 21.1027C271.67 17.8676 269.152 15.3596 265.973 13.5788C262.795 11.7979 259.227 10.9075 255.269 10.9075C252.271 10.9075 249.497 11.4121 246.949 12.4212C244.4 13.4304 242.166 14.8847 240.247 16.7842C238.358 18.6838 236.874 20.9543 235.795 23.5959C234.745 26.2374 234.22 29.2055 234.22 32.5C234.22 36.863 235.135 40.6621 236.964 43.8973C238.823 47.1324 241.342 49.6404 244.52 51.4212C247.698 53.2021 251.281 54.0925 255.269 54.0925Z" fill="#171717"/>
<path d="M326.026 65C320.329 65 315.546 63.8573 311.678 61.5719C307.84 59.2865 304.947 56.1849 302.998 52.2671C301.049 48.3196 300.074 43.8676 300.074 38.911V1.33562H311.768V39.0445C311.768 44.0902 313.043 47.8596 315.591 50.3527C318.14 52.8459 321.618 54.0925 326.026 54.0925C330.433 54.0925 333.896 52.8459 336.415 50.3527C338.964 47.8596 340.238 44.0902 340.238 39.0445V1.33562H351.977V38.911C351.977 43.8676 351.002 48.3196 349.053 52.2671C347.104 56.1849 344.211 59.2865 340.373 61.5719C336.535 63.8573 331.753 65 326.026 65Z" fill="#171717"/>
<path d="M383.65 63.6644L359.768 1.33562H372.946L390.217 48.5274L406.948 1.33562H419.856L396.469 63.6644H383.65Z" fill="#171717"/>
<path d="M428.028 63.6644V1.33562H469.901V11.4863H439.722V26.5788H465.538V36.0616H439.722V53.4247H470.216V63.6644H428.028Z" fill="#171717"/>
<path d="M476.613 63.6644L500.765 1.33562H513.808L538.455 63.6644H525.277L519.925 49.5514H494.604L489.431 63.6644H476.613ZM497.482 39.7123H516.957L507.062 14.4247L497.482 39.7123Z" fill="#171717"/>
<path d="M571.813 65C566.116 65 561.333 63.8573 557.465 61.5719C553.627 59.2865 550.734 56.1849 548.785 52.2671C546.836 48.3196 545.861 43.8676 545.861 38.911V1.33562H557.555V39.0445C557.555 44.0902 558.83 47.8596 561.378 50.3527C563.927 52.8459 567.405 54.0925 571.813 54.0925C576.22 54.0925 579.683 52.8459 582.202 50.3527C584.751 47.8596 586.025 44.0902 586.025 39.0445V1.33562H597.764V38.911C597.764 43.8676 596.789 48.3196 594.84 52.2671C592.891 56.1849 589.998 59.2865 586.16 61.5719C582.322 63.8573 577.54 65 571.813 65Z" fill="#171717"/>
<path d="M634.901 63.6644V1.33562H658.513C663.041 1.33562 667.059 2.12214 670.567 3.6952C674.075 5.23858 676.818 7.47945 678.797 10.4178C680.806 13.3562 681.811 16.8881 681.811 21.0137C681.811 25.1986 680.881 28.7454 679.022 31.6541C677.193 34.5628 674.524 36.7888 671.016 38.3322C667.508 39.8459 663.251 40.6027 658.243 40.6027H646.594V63.6644H634.901ZM646.594 30.7637H658.198C661.946 30.7637 664.87 29.992 666.969 28.4486C669.067 26.9053 670.117 24.5011 670.117 21.2363C670.117 17.9715 669.037 15.5228 666.879 13.8904C664.75 12.2283 661.886 11.3973 658.288 11.3973H646.594V30.7637Z" fill="#171717"/>
<path d="M767.193 63.6644V1.33562H778.887V63.6644H767.193Z" fill="#171717"/>
<path d="M794.776 63.6644V1.33562H806.11L835.929 44.2534V1.33562H847.308V63.6644H835.974L806.155 20.2123V63.6644H794.776Z" fill="#171717"/>
<path d="M874.855 63.6644V11.9315H857.45V1.33562H904V11.9315H886.594V63.6644H874.855Z" fill="#171717"/>
<path d="M300 158.663V96.292H320.335C326.664 96.292 332.257 97.6137 337.116 100.257C341.975 102.9 345.769 106.568 348.498 111.261C351.228 115.954 352.592 121.374 352.592 127.522C352.592 132.096 351.812 136.299 350.253 140.13C348.693 143.932 346.474 147.214 343.594 149.976C340.745 152.738 337.341 154.877 333.382 156.391C329.453 157.906 325.104 158.663 320.335 158.663H300ZM311.697 147.882H319.255C322.405 147.882 325.269 147.422 327.848 146.501C330.428 145.58 332.647 144.244 334.507 142.491C336.396 140.739 337.836 138.601 338.826 136.076C339.845 133.552 340.355 130.7 340.355 127.522C340.355 123.216 339.47 119.548 337.701 116.518C335.961 113.459 333.502 111.127 330.323 109.524C327.173 107.89 323.484 107.073 319.255 107.073H311.697V147.882Z" fill="#171717"/>
<path d="M364.584 158.663V96.292H406.469V106.45H376.281V121.552H402.105V131.042H376.281V148.417H406.784V158.663H364.584Z" fill="#171717"/>
<path d="M458.148 158.663L434.259 96.292H447.441L464.716 143.516L481.452 96.292H494.364L470.97 158.663H458.148Z" fill="#171717"/>
<path d="M528.093 160C522.394 160 517.61 158.857 513.741 156.57C509.902 154.283 507.008 151.179 505.058 147.258C503.109 143.308 502.134 138.853 502.134 133.893V96.292H513.831V134.027C513.831 139.076 515.106 142.848 517.655 145.343C520.205 147.838 523.684 149.085 528.093 149.085C532.502 149.085 535.966 147.838 538.485 145.343C541.035 142.848 542.309 139.076 542.309 134.027V96.292H554.052V133.893C554.052 138.853 553.077 143.308 551.127 147.258C549.178 151.179 546.283 154.283 542.444 156.57C538.605 158.857 533.821 160 528.093 160Z" fill="#171717"/>
<path d="M569.583 158.663V96.292H611.468V106.45H581.281V121.552H607.104V131.042H581.281V148.417H611.783V158.663H569.583Z" fill="#171717"/>
<path d="M668.006 160C663.507 160 659.113 159.361 654.824 158.084C650.565 156.777 646.966 154.921 644.027 152.515L649.696 143.739C651.135 145.046 652.86 146.174 654.869 147.125C656.879 148.075 659.008 148.818 661.258 149.352C663.537 149.857 665.802 150.11 668.051 150.11C671.8 150.11 674.845 149.427 677.184 148.06C679.523 146.664 680.693 144.66 680.693 142.046C680.693 139.997 679.883 138.289 678.264 136.923C676.644 135.527 673.66 134.22 669.311 133.002L663.192 131.265C657.044 129.542 652.59 127.24 649.831 124.359C647.101 121.448 645.737 117.884 645.737 113.667C645.737 110.905 646.306 108.38 647.446 106.093C648.586 103.806 650.191 101.831 652.26 100.168C654.36 98.5047 656.834 97.2276 659.683 96.3365C662.533 95.4455 665.637 95 668.996 95C673.405 95 677.499 95.6386 681.278 96.9157C685.057 98.1631 688.146 99.8709 690.546 102.039L684.742 110.548C683.483 109.39 681.998 108.38 680.288 107.519C678.579 106.658 676.734 106.004 674.755 105.559C672.775 105.083 670.781 104.846 668.771 104.846C666.402 104.846 664.332 105.172 662.563 105.826C660.793 106.479 659.413 107.415 658.424 108.633C657.434 109.85 656.939 111.335 656.939 113.088C656.939 114.365 657.269 115.479 657.929 116.429C658.618 117.379 659.788 118.256 661.438 119.058C663.087 119.83 665.367 120.647 668.276 121.508L674.665 123.379C680.693 125.131 685.087 127.389 687.846 130.151C690.606 132.883 691.985 136.447 691.985 140.843C691.985 144.615 691.026 147.942 689.106 150.822C687.187 153.703 684.427 155.961 680.828 157.594C677.259 159.198 672.985 160 668.006 160Z" fill="#171717"/>
<path d="M729.402 160C723.703 160 718.919 158.857 715.05 156.57C711.211 154.283 708.317 151.179 706.367 147.258C704.418 143.308 703.443 138.853 703.443 133.893V96.292H715.14V134.027C715.14 139.076 716.415 142.848 718.964 145.343C721.514 147.838 724.993 149.085 729.402 149.085C733.811 149.085 737.275 147.838 739.794 145.343C742.344 142.848 743.618 139.076 743.618 134.027V96.292H755.36V133.893C755.36 138.853 754.386 143.308 752.436 147.258C750.487 151.179 747.592 154.283 743.753 156.57C739.914 158.857 735.13 160 729.402 160Z" fill="#171717"/>
<path d="M770.892 158.663V96.292H795.276C799.745 96.292 803.629 97.0493 806.928 98.5641C810.228 100.049 812.777 102.188 814.577 104.979C816.376 107.771 817.276 111.098 817.276 114.959C817.276 118.048 816.631 120.765 815.341 123.112C814.052 125.458 812.267 127.403 809.988 128.948C807.738 130.492 805.129 131.576 802.16 132.2L820.47 158.663H806.434L790.148 134.249H782.589V158.663H770.892ZM782.589 124.76H793.567C797.316 124.76 800.24 123.988 802.34 122.443C804.439 120.869 805.489 118.582 805.489 115.583C805.489 112.464 804.529 110.088 802.61 108.454C800.69 106.821 797.871 106.004 794.152 106.004H782.589V124.76Z" fill="#171717"/>
<path d="M852.962 158.663V96.292H864.659V148.06H891.383V158.663H852.962Z" fill="#171717"/>
<path d="M890.929 120.929L889.804 96.292H900.377L899.252 120.929H890.929Z" fill="#171717"/>
<path d="M899.189 158.663L923.348 96.292H936.395L961.049 158.663H947.867L942.513 144.541H917.184L912.01 158.663H899.189ZM920.064 134.695H939.544L929.646 109.39L920.064 134.695Z" fill="#171717"/>
<path d="M969.741 158.663V96.292H994.125C998.594 96.292 1002.48 97.0493 1005.78 98.5641C1009.08 100.049 1011.63 102.188 1013.43 104.979C1015.22 107.771 1016.12 111.098 1016.12 114.959C1016.12 118.048 1015.48 120.765 1014.19 123.112C1012.9 125.458 1011.12 127.403 1008.84 128.948C1006.59 130.492 1003.98 131.576 1001.01 132.2L1019.32 158.663H1005.28L988.996 134.249H981.438V158.663H969.741ZM981.438 124.76H992.415C996.164 124.76 999.089 123.988 1001.19 122.443C1003.29 120.869 1004.34 118.582 1004.34 115.583C1004.34 112.464 1003.38 110.088 1001.46 108.454C999.538 106.821 996.719 106.004 993 106.004H981.438V124.76Z" fill="#171717"/>
<path d="M1041.85 158.663V106.895H1024.44V96.292H1071V106.895H1053.59V158.663H1041.85Z" fill="#171717"/>
</svg>
