<svg width="1180" height="161" viewBox="0 0 1180 161" fill="none" xmlns="http://www.w3.org/2000/svg">
<path d="M40 64.6644L64.7245 2.33562H78.0767L103.308 64.6644H89.8174L84.3384 50.5514H58.4168L53.122 64.6644H40ZM61.3635 40.7123H81.2996L71.1704 15.4247L61.3635 40.7123Z" fill="#171717"/>
<path d="M134.325 64.6644V2.33562H145.927L176.453 45.2534V2.33562H188.102V64.6644H176.499L145.973 21.2123V64.6644H134.325Z" fill="#171717"/>
<path d="M204.377 64.6644V2.33562H247.242V12.4863H216.348V27.5788H242.776V37.0616H216.348V54.4247H247.564V64.6644H204.377Z" fill="#171717"/>
<path d="M274.694 64.6644L255.218 2.33562H267.695L280.771 48.1027L294.584 2.33562H306.831L320.598 48.0582L333.673 2.33562H345.829L326.399 64.6644H314.106L300.569 19.6096L286.895 64.6644H274.694Z" fill="#171717"/>
<path d="M377.933 64.6644V2.33562H402.105C406.74 2.33562 410.853 3.12214 414.445 4.6952C418.036 6.23858 420.845 8.47945 422.87 11.4178C424.927 14.3562 425.955 17.8881 425.955 22.0137C425.955 26.1986 425.004 29.7454 423.101 32.6541C421.228 35.5628 418.496 37.7888 414.905 39.3322C411.314 40.8459 406.955 41.6027 401.829 41.6027H389.904V64.6644H377.933ZM389.904 31.7637H401.783C405.62 31.7637 408.613 30.992 410.761 29.4486C412.91 27.9053 413.984 25.5011 413.984 22.2363C413.984 18.9715 412.879 16.5228 410.669 14.8904C408.49 13.2283 405.559 12.3973 401.875 12.3973H389.904V31.7637Z" fill="#171717"/>
<path d="M513.362 64.6644V2.33562H525.332V64.6644H513.362Z" fill="#171717"/>
<path d="M541.598 64.6644V2.33562H553.201L583.727 45.2534V2.33562H595.375V64.6644H583.773L553.247 21.2123V64.6644H541.598Z" fill="#171717"/>
<path d="M623.575 64.6644V12.9315H605.757V2.33562H653.41V12.9315H635.592V64.6644H623.575Z" fill="#171717"/>
<path d="M715.994 66C711.114 66 706.586 65.1838 702.412 63.5514C698.268 61.8893 694.661 59.589 691.592 56.6507C688.523 53.7123 686.144 50.2694 684.456 46.3219C682.767 42.3744 681.923 38.1005 681.923 33.5C681.923 28.8699 682.767 24.581 684.456 20.6336C686.144 16.6861 688.523 13.2431 691.592 10.3048C694.661 7.36644 698.268 5.08105 702.412 3.44863C706.586 1.81621 711.114 1 715.994 1C720.844 1 725.341 1.83105 729.485 3.49315C733.628 5.15525 737.235 7.47032 740.304 10.4384C743.374 13.4064 745.768 16.8642 747.487 20.8116C749.206 24.7295 750.065 28.9589 750.065 33.5C750.065 38.1005 749.206 42.3744 747.487 46.3219C745.768 50.2694 743.374 53.7123 740.304 56.6507C737.235 59.589 733.628 61.8893 729.485 63.5514C725.341 65.1838 720.844 66 715.994 66ZM715.994 55.0925C719.033 55.0925 721.857 54.5879 724.466 53.5788C727.106 52.54 729.392 51.0856 731.326 49.2158C733.291 47.3162 734.81 45.0457 735.884 42.4041C736.989 39.7329 737.542 36.7648 737.542 33.5C737.542 29.137 736.59 25.3379 734.687 22.1027C732.784 18.8676 730.206 16.3596 726.952 14.5788C723.699 12.7979 720.046 11.9075 715.994 11.9075C712.925 11.9075 710.086 12.4121 707.477 13.4212C704.867 14.4304 702.581 15.8847 700.616 17.7842C698.682 19.6838 697.163 21.9543 696.058 24.5959C694.984 27.2374 694.447 30.2055 694.447 33.5C694.447 37.863 695.383 41.6621 697.255 44.8973C699.158 48.1324 701.737 50.6404 704.99 52.4212C708.244 54.2021 711.912 55.0925 715.994 55.0925Z" fill="#171717"/>
<path d="M762.276 64.6644V2.33562H802.977V12.9315H774.247V29.1815H800.168V39.4212H774.247V64.6644H762.276Z" fill="#171717"/>
<path d="M854.882 64.6644L830.434 2.33562H843.924L861.604 49.5274L878.732 2.33562H891.946L868.004 64.6644H854.882Z" fill="#171717"/>
<path d="M900.312 64.6644V2.33562H912.283V64.6644H900.312Z" fill="#171717"/>
<path d="M928.548 64.6644V2.33562H971.413V12.4863H940.519V27.5788H966.947V37.0616H940.519V54.4247H971.736V64.6644H928.548Z" fill="#171717"/>
<path d="M998.865 64.6644L979.389 2.33562H991.867L1004.94 48.1027L1018.76 2.33562H1031L1044.77 48.0582L1057.84 2.33562H1070L1050.57 64.6644H1038.28L1024.74 19.6096L1011.07 64.6644H998.865Z" fill="#171717"/>
<path d="M431.973 160.65C427.25 160.65 422.868 159.834 418.828 158.201C414.818 156.539 411.328 154.239 408.357 151.301C405.387 148.362 403.084 144.919 401.451 140.972C399.817 137.024 399 132.75 399 128.15C399 123.52 399.817 119.231 401.451 115.283C403.084 111.336 405.387 107.893 408.357 104.955C411.328 102.016 414.818 99.731 418.828 98.0985C422.868 96.4661 427.25 95.6499 431.973 95.6499C436.666 95.6499 441.018 96.481 445.028 98.1431C449.038 99.8052 452.529 102.12 455.499 105.088C458.47 108.056 460.787 111.514 462.45 115.462C464.114 119.379 464.946 123.609 464.946 128.15C464.946 132.75 464.114 137.024 462.45 140.972C460.787 144.919 458.47 148.362 455.499 151.301C452.529 154.239 449.038 156.539 445.028 158.201C441.018 159.834 436.666 160.65 431.973 160.65ZM431.973 149.742C434.914 149.742 437.646 149.238 440.171 148.229C442.726 147.19 444.939 145.736 446.811 143.866C448.712 141.966 450.182 139.696 451.222 137.054C452.291 134.383 452.826 131.415 452.826 128.15C452.826 123.787 451.905 119.988 450.063 116.753C448.222 113.517 445.726 111.009 442.578 109.229C439.429 107.448 435.894 106.557 431.973 106.557C429.002 106.557 426.255 107.062 423.73 108.071C421.205 109.08 418.992 110.535 417.09 112.434C415.219 114.334 413.749 116.604 412.679 119.246C411.64 121.887 411.12 124.855 411.12 128.15C411.12 132.513 412.026 136.312 413.838 139.547C415.679 142.782 418.175 145.29 421.323 147.071C424.472 148.852 428.022 149.742 431.973 149.742Z" fill="#171717"/>
<path d="M476.762 159.314V96.9855H487.991L517.533 139.903V96.9855H528.806V159.314H517.577L488.036 115.862V159.314H476.762Z" fill="#171717"/>
<path d="M558.836 159.314L582.763 96.9855H595.685L620.103 159.314H607.047L601.745 145.201H576.659L571.535 159.314H558.836ZM579.511 135.362H598.804L589.001 110.075L579.511 135.362Z" fill="#171717"/>
<path d="M628.712 159.314V96.9855H652.862C657.288 96.9855 661.135 97.7424 664.402 99.2561C667.67 100.74 670.195 102.877 671.977 105.667C673.759 108.457 674.651 111.781 674.651 115.64C674.651 118.726 674.012 121.442 672.735 123.787C671.457 126.132 669.69 128.076 667.432 129.619C665.204 131.162 662.62 132.246 659.679 132.869L677.814 159.314H663.912L647.782 134.917H640.297V159.314H628.712ZM640.297 125.434H651.169C654.882 125.434 657.778 124.662 659.857 123.119C661.937 121.546 662.976 119.261 662.976 116.263C662.976 113.146 662.026 110.772 660.125 109.14C658.224 107.507 655.431 106.691 651.748 106.691H640.297V125.434Z" fill="#171717"/>
<path d="M700.127 159.314V107.581H682.883V96.9855H729V107.581H711.756V159.314H700.127Z" fill="#171717"/>
<circle cx="470" cy="34" r="32" fill="#171717"/>
<circle cx="480" cy="14" r="10" fill="white"/>
</svg>
