<svg width="1100" height="161" viewBox="0 0 1100 161" fill="none" xmlns="http://www.w3.org/2000/svg">
<path d="M399.965 159.664V97.3356H411.667V121.555H440.291V97.3356H451.993V159.664H440.291V132.151H411.667V159.664H399.965Z" fill="#171717"/>
<path d="M460.714 159.664L484.882 97.3356H497.934L522.598 159.664H509.411L504.055 145.551H478.716L473.541 159.664H460.714ZM481.597 135.712H501.085L491.183 110.425L481.597 135.712Z" fill="#171717"/>
<path d="M552.918 159.664V97.3356H564.53V141.01L594.054 97.3356H605.486V159.664H593.874V115.634L564.26 159.664H552.918Z" fill="#171717"/>
<path d="M650.245 161C643.704 161 637.973 159.664 633.052 156.993C628.132 154.322 624.306 150.567 621.576 145.729C618.845 140.862 617.48 135.148 617.48 128.589C617.48 123.811 618.275 119.447 619.865 115.5C621.485 111.523 623.766 108.08 626.706 105.171C629.677 102.233 633.157 99.9772 637.148 98.4041C641.169 96.8014 645.579 96 650.38 96C655.331 96 659.561 96.6233 663.072 97.8699C666.582 99.0868 669.703 100.823 672.433 103.079L666.447 112.562C664.527 110.751 662.277 109.416 659.696 108.555C657.146 107.664 654.311 107.219 651.19 107.219C647.86 107.219 644.874 107.709 642.234 108.688C639.593 109.668 637.343 111.092 635.483 112.962C633.622 114.803 632.197 117.029 631.207 119.64C630.217 122.252 629.722 125.191 629.722 128.455C629.722 132.937 630.607 136.766 632.377 139.942C634.147 143.088 636.668 145.507 639.938 147.199C643.209 148.89 647.094 149.736 651.595 149.736C654.626 149.736 657.581 149.276 660.462 148.356C663.372 147.436 666.117 145.967 668.698 143.949L674.099 153.699C671.098 156.014 667.618 157.809 663.657 159.086C659.726 160.362 655.256 161 650.245 161Z" fill="#171717"/>
<path d="M723.178 159.664L697.524 126.986L720.433 97.3356H734.925L711.791 126.942L738.255 159.664H723.178ZM684.247 159.664V97.3356H695.949V121.555H707.696V132.151H695.949V159.664H684.247Z" fill="#171717"/>
<path d="M749.69 160.777L745.279 150.182C748.94 149.38 752.195 148.178 755.046 146.575C757.926 144.973 760.507 142.821 762.787 140.12C765.097 137.419 767.243 134.05 769.223 130.014L785.2 97.3356H798.747L779.89 134.243C777.729 138.487 775.539 142.153 773.319 145.24C771.098 148.326 768.773 150.924 766.342 153.031C763.942 155.108 761.362 156.771 758.601 158.017C755.871 159.264 752.9 160.184 749.69 160.777ZM767.378 140.832L743.299 97.3356H757.521L775.254 130.815L767.378 140.832Z" fill="#171717"/>
<path d="M832.998 161C826.457 161 820.726 159.664 815.805 156.993C810.884 154.322 807.059 150.567 804.328 145.729C801.598 140.862 800.233 135.148 800.233 128.589C800.233 123.811 801.028 119.447 802.618 115.5C804.238 111.523 806.519 108.08 809.459 105.171C812.43 102.233 815.91 99.9772 819.901 98.4041C823.921 96.8014 828.332 96 833.133 96C838.084 96 842.314 96.6233 845.825 97.8699C849.335 99.0868 852.456 100.823 855.186 103.079L849.2 112.562C847.28 110.751 845.03 109.416 842.449 108.555C839.899 107.664 837.063 107.219 833.943 107.219C830.612 107.219 827.627 107.709 824.986 108.688C822.346 109.668 820.096 111.092 818.235 112.962C816.375 114.803 814.95 117.029 813.96 119.64C812.97 122.252 812.475 125.191 812.475 128.455C812.475 132.937 813.36 136.766 815.13 139.942C816.9 143.088 819.421 145.507 822.691 147.199C825.962 148.89 829.847 149.736 834.348 149.736C837.378 149.736 840.334 149.276 843.214 148.356C846.125 147.436 848.87 145.967 851.451 143.949L856.851 153.699C853.851 156.014 850.37 157.809 846.41 159.086C842.479 160.362 838.009 161 832.998 161Z" fill="#171717"/>
<path d="M894.531 161C887.99 161 882.259 159.664 877.338 156.993C872.417 154.322 868.592 150.567 865.861 145.729C863.131 140.862 861.766 135.148 861.766 128.589C861.766 123.811 862.561 119.447 864.151 115.5C865.771 111.523 868.052 108.08 870.992 105.171C873.962 102.233 877.443 99.9772 881.434 98.4041C885.454 96.8014 889.865 96 894.666 96C899.616 96 903.847 96.6233 907.358 97.8699C910.868 99.0868 913.989 100.823 916.719 103.079L910.733 112.562C908.813 110.751 906.563 109.416 903.982 108.555C901.432 107.664 898.596 107.219 895.476 107.219C892.145 107.219 889.16 107.709 886.519 108.688C883.879 109.668 881.629 111.092 879.768 112.962C877.908 114.803 876.483 117.029 875.493 119.64C874.503 122.252 874.008 125.191 874.008 128.455C874.008 132.937 874.893 136.766 876.663 139.942C878.433 143.088 880.954 145.507 884.224 147.199C887.495 148.89 891.38 149.736 895.881 149.736C898.911 149.736 901.867 149.276 904.747 148.356C907.658 147.436 910.403 145.967 912.983 143.949L918.384 153.699C915.384 156.014 911.903 157.809 907.943 159.086C904.012 160.362 899.541 161 894.531 161Z" fill="#171717"/>
<path d="M940.19 159.664V107.932H922.772V97.3356H969.354V107.932H951.936V159.664H940.19Z" fill="#171717"/>
<path d="M979.517 159.664V97.3356H1002.07C1008.22 97.3356 1013.17 98.6712 1016.92 101.342C1020.7 103.984 1022.59 107.902 1022.59 113.096C1022.59 115.025 1022.14 116.85 1021.24 118.572C1020.34 120.293 1019.17 121.807 1017.73 123.113C1016.29 124.389 1014.76 125.369 1013.14 126.051C1016.56 127.12 1019.38 129.034 1021.6 131.795C1023.82 134.555 1024.93 137.924 1024.93 141.901C1024.93 145.403 1024.03 148.49 1022.23 151.161C1020.46 153.832 1017.92 155.925 1014.62 157.438C1011.32 158.922 1007.42 159.664 1002.92 159.664H979.517ZM991.219 150.805H1001.08C1005.01 150.805 1007.95 150.033 1009.9 148.49C1011.85 146.917 1012.82 144.572 1012.82 141.455C1012.82 138.398 1011.85 136.054 1009.9 134.421C1007.98 132.789 1005.05 131.973 1001.12 131.973H991.219V150.805ZM991.219 123.603H1000.36C1002.55 123.603 1004.45 123.247 1006.07 122.534C1007.69 121.822 1008.95 120.798 1009.85 119.462C1010.75 118.097 1011.2 116.479 1011.2 114.61C1011.2 111.879 1010.24 109.801 1008.32 108.377C1006.43 106.922 1003.72 106.195 1000.18 106.195H991.219V123.603Z" fill="#171717"/>
<path d="M1066.66 161C1061.89 161 1057.46 160.184 1053.38 158.551C1049.33 156.889 1045.81 154.589 1042.81 151.651C1039.81 148.712 1037.48 145.269 1035.83 141.322C1034.18 137.374 1033.35 133.1 1033.35 128.5C1033.35 123.87 1034.18 119.581 1035.83 115.634C1037.48 111.686 1039.81 108.243 1042.81 105.305C1045.81 102.366 1049.33 100.081 1053.38 98.4486C1057.46 96.8162 1061.89 96 1066.66 96C1071.4 96 1075.8 96.8311 1079.85 98.4932C1083.9 100.155 1087.42 102.47 1090.42 105.438C1093.42 108.406 1095.76 111.864 1097.44 115.812C1099.12 119.729 1099.96 123.959 1099.96 128.5C1099.96 133.1 1099.12 137.374 1097.44 141.322C1095.76 145.269 1093.42 148.712 1090.42 151.651C1087.42 154.589 1083.9 156.889 1079.85 158.551C1075.8 160.184 1071.4 161 1066.66 161ZM1066.66 150.092C1069.63 150.092 1072.39 149.588 1074.94 148.579C1077.52 147.54 1079.76 146.086 1081.65 144.216C1083.57 142.316 1085.05 140.046 1086.1 137.404C1087.18 134.733 1087.72 131.765 1087.72 128.5C1087.72 124.137 1086.79 120.338 1084.93 117.103C1083.07 113.868 1080.55 111.36 1077.37 109.579C1074.19 107.798 1070.62 106.908 1066.66 106.908C1063.66 106.908 1060.88 107.412 1058.33 108.421C1055.78 109.43 1053.55 110.885 1051.63 112.784C1049.74 114.684 1048.25 116.954 1047.17 119.596C1046.12 122.237 1045.6 125.205 1045.6 128.5C1045.6 132.863 1046.51 136.662 1048.34 139.897C1050.2 143.132 1052.72 145.64 1055.9 147.421C1059.08 149.202 1062.67 150.092 1066.66 150.092Z" fill="#171717"/>
<circle cx="462" cy="33" r="32" fill="#171717"/>
<circle cx="472" cy="13" r="10" fill="white"/>
<path d="M40.9648 64.35V1.35H52.6648V25.83H81.2848V1.35H92.9848V64.35H81.2848V36.54H52.6648V64.35H40.9648Z" fill="#171717"/>
<path d="M138.289 65.7C133.519 65.7 129.094 64.875 125.014 63.225C120.964 61.545 117.439 59.22 114.439 56.25C111.439 53.28 109.114 49.8 107.464 45.81C105.814 41.82 104.989 37.5 104.989 32.85C104.989 28.17 105.814 23.835 107.464 19.845C109.114 15.855 111.439 12.375 114.439 9.405C117.439 6.435 120.964 4.125 125.014 2.475C129.094 0.824999 133.519 0 138.289 0C143.029 0 147.424 0.84 151.474 2.52C155.524 4.2 159.049 6.54 162.049 9.54C165.049 12.54 167.389 16.035 169.069 20.025C170.749 23.985 171.589 28.26 171.589 32.85C171.589 37.5 170.749 41.82 169.069 45.81C167.389 49.8 165.049 53.28 162.049 56.25C159.049 59.22 155.524 61.545 151.474 63.225C147.424 64.875 143.029 65.7 138.289 65.7ZM138.289 54.675C141.259 54.675 144.019 54.165 146.569 53.145C149.149 52.095 151.384 50.625 153.274 48.735C155.194 46.815 156.679 44.52 157.729 41.85C158.809 39.15 159.349 36.15 159.349 32.85C159.349 28.44 158.419 24.6 156.559 21.33C154.699 18.06 152.179 15.525 148.999 13.725C145.819 11.925 142.249 11.025 138.289 11.025C135.289 11.025 132.514 11.535 129.964 12.555C127.414 13.575 125.179 15.045 123.259 16.965C121.369 18.885 119.884 21.18 118.804 23.85C117.754 26.52 117.229 29.52 117.229 32.85C117.229 37.26 118.144 41.1 119.974 44.37C121.834 47.64 124.354 50.175 127.534 51.975C130.714 53.775 134.299 54.675 138.289 54.675Z" fill="#171717"/>
<path d="M183.523 64.35V1.35H206.068C212.218 1.35 217.168 2.7 220.918 5.4C224.698 8.07 226.588 12.03 226.588 17.28C226.588 19.23 226.138 21.075 225.238 22.815C224.338 24.555 223.168 26.085 221.728 27.405C220.288 28.695 218.758 29.685 217.138 30.375C220.558 31.455 223.378 33.39 225.598 36.18C227.818 38.97 228.928 42.375 228.928 46.395C228.928 49.935 228.028 53.055 226.228 55.755C224.458 58.455 221.923 60.57 218.623 62.1C215.323 63.6 211.423 64.35 206.923 64.35H183.523ZM195.223 55.395H205.078C209.008 55.395 211.948 54.615 213.898 53.055C215.848 51.465 216.823 49.095 216.823 45.945C216.823 42.855 215.848 40.485 213.898 38.835C211.978 37.185 209.053 36.36 205.123 36.36H195.223V55.395ZM195.223 27.9H204.358C206.548 27.9 208.453 27.54 210.073 26.82C211.693 26.1 212.953 25.065 213.853 23.715C214.753 22.335 215.203 20.7 215.203 18.81C215.203 16.05 214.243 13.95 212.323 12.51C210.433 11.04 207.718 10.305 204.178 10.305H195.223V27.9Z" fill="#171717"/>
<path d="M234.068 64.35L258.233 1.35H271.283L295.943 64.35H282.758L277.403 50.085H252.068L246.893 64.35H234.068ZM254.948 40.14H274.433L264.533 14.58L254.948 40.14Z" fill="#171717"/>
<path d="M299.642 64.35L318.092 38.07C313.292 36.99 309.542 34.95 306.842 31.95C304.172 28.95 302.837 25.11 302.837 20.43C302.837 16.44 303.767 13.02 305.627 10.17C307.517 7.32 310.172 5.145 313.592 3.645C317.042 2.115 321.092 1.35 325.742 1.35H349.232V64.35H337.532V39.69H329.927L313.187 64.35H299.642ZM326.012 30.105H337.532V11.16H326.507C322.787 11.16 319.877 11.94 317.777 13.5C315.677 15.03 314.627 17.34 314.627 20.43C314.627 23.55 315.587 25.95 317.507 27.63C319.427 29.28 322.262 30.105 326.012 30.105Z" fill="#171717"/>
<path d="M398.382 64.35V12.06H380.967V1.35H427.542V12.06H410.127V64.35H398.382Z" fill="#171717"/>
<path d="M544.833 64.35V39.24C542.223 39.93 539.673 40.485 537.183 40.905C534.723 41.325 532.083 41.535 529.263 41.535C524.403 41.535 520.233 40.74 516.753 39.15C513.303 37.53 510.648 35.01 508.788 31.59C506.928 28.17 505.998 23.715 505.998 18.225V1.35H517.698V16.56C517.698 21.84 518.838 25.56 521.118 27.72C523.428 29.88 526.773 30.96 531.153 30.96C533.913 30.96 536.358 30.81 538.488 30.51C540.618 30.21 542.733 29.82 544.833 29.34V1.35H556.533V64.35H544.833Z" fill="#171717"/>
<path d="M611.364 64.35L585.714 31.32L608.619 1.35H623.109L599.979 31.275L626.439 64.35H611.364ZM572.439 64.35V1.35H584.139V25.83H595.884V36.54H584.139V64.35H572.439Z" fill="#171717"/>
<path d="M629.312 64.35L653.477 1.35H666.527L691.187 64.35H678.002L672.647 50.085H647.312L642.137 64.35H629.312ZM650.192 40.14H669.677L659.777 14.58L650.192 40.14Z" fill="#171717"/>
<path d="M739.547 65.7C734.687 65.7 730.262 65.085 726.272 63.855C722.282 62.625 718.757 60.855 715.697 58.545L721.052 49.275C723.212 51.165 725.807 52.665 728.837 53.775C731.897 54.855 735.092 55.395 738.422 55.395C741.302 55.395 743.792 54.99 745.892 54.18C747.992 53.37 749.612 52.245 750.752 50.805C751.922 49.365 752.507 47.685 752.507 45.765C752.507 42.765 751.487 40.5 749.447 38.97C747.407 37.41 744.242 36.63 739.952 36.63H727.487V27.405H739.052C741.452 27.405 743.507 27.06 745.217 26.37C746.957 25.68 748.292 24.705 749.222 23.445C750.152 22.155 750.617 20.61 750.617 18.81C750.617 17.04 750.152 15.555 749.222 14.355C748.322 13.155 746.957 12.255 745.127 11.655C743.327 11.025 741.122 10.71 738.512 10.71C735.602 10.71 732.782 11.19 730.052 12.15C727.352 13.11 725.042 14.445 723.122 16.155L717.677 7.56C720.407 5.13 723.707 3.27 727.577 1.98C731.447 0.66 735.587 0 739.997 0C744.617 0 748.592 0.674999 751.922 2.025C755.252 3.345 757.802 5.25 759.572 7.74C761.372 10.23 762.272 13.215 762.272 16.695C762.272 18.615 761.837 20.49 760.967 22.32C760.097 24.12 758.942 25.74 757.502 27.18C756.092 28.59 754.547 29.67 752.867 30.42C756.377 31.56 759.212 33.465 761.372 36.135C763.562 38.805 764.642 42.165 764.612 46.215C764.612 49.875 763.562 53.175 761.462 56.115C759.392 59.055 756.467 61.395 752.687 63.135C748.937 64.845 744.557 65.7 739.547 65.7Z" fill="#171717"/>
<path d="M777.049 64.35V1.35H800.674C805.204 1.35 809.224 2.145 812.734 3.735C816.244 5.295 818.989 7.56 820.969 10.53C822.979 13.5 823.984 17.07 823.984 21.24C823.984 25.47 823.054 29.055 821.194 31.995C819.364 34.935 816.694 37.185 813.184 38.745C809.674 40.275 805.414 41.04 800.404 41.04H788.749V64.35H777.049ZM788.749 31.095H800.359C804.109 31.095 807.034 30.315 809.134 28.755C811.234 27.195 812.284 24.765 812.284 21.465C812.284 18.165 811.204 15.69 809.044 14.04C806.914 12.36 804.049 11.52 800.449 11.52H788.749V31.095Z" fill="#171717"/>
<path d="M834.793 64.35V1.35H876.688V11.61H846.493V26.865H872.323V36.45H846.493V54H877.003V64.35H834.793Z" fill="#171717"/>
<path d="M890.604 64.35V1.35H902.304V25.83H930.924V1.35H942.624V64.35H930.924V36.54H902.304V64.35H890.604Z" fill="#171717"/>
<path d="M958.543 64.35V1.35H970.153V45.495L999.673 1.35H1011.1V64.35H999.493V19.845L969.883 64.35H958.543Z" fill="#171717"/>
<path d="M1022.01 64.35L1040.46 38.07C1035.66 36.99 1031.91 34.95 1029.21 31.95C1026.54 28.95 1025.21 25.11 1025.21 20.43C1025.21 16.44 1026.14 13.02 1028 10.17C1029.89 7.32 1032.54 5.145 1035.96 3.645C1039.41 2.115 1043.46 1.35 1048.11 1.35H1071.6V64.35H1059.9V39.69H1052.3L1035.56 64.35H1022.01ZM1048.38 30.105H1059.9V11.16H1048.88C1045.16 11.16 1042.25 11.94 1040.15 13.5C1038.05 15.03 1037 17.34 1037 20.43C1037 23.55 1037.96 25.95 1039.88 27.63C1041.8 29.28 1044.63 30.105 1048.38 30.105Z" fill="#171717"/>
</svg>
