<svg width="1180" height="368" viewBox="0 0 1180 368" fill="none" xmlns="http://www.w3.org/2000/svg">
<path d="M175 260L152.483 212.75L197.517 212.75L175 260Z" fill="#799FCC"/>
<path d="M925 108L947.517 155.25H902.483L925 108Z" fill="#198F76"/>
<path fill-rule="evenodd" clip-rule="evenodd" d="M271 155.932C271.57 155.977 272.146 156 272.726 156C285.58 156 296.001 144.807 296.001 131C296.001 117.193 285.58 106 272.726 106C272.146 106 271.57 106.023 271 106.068V155.932Z" fill="#C15191"/>
<path fill-rule="evenodd" clip-rule="evenodd" d="M607 260.932C607.57 260.977 608.146 261 608.726 261C621.58 261 632.001 249.807 632.001 236C632.001 222.193 621.58 211 608.726 211C608.146 211 607.57 211.023 607 211.068V260.932Z" fill="#198F76"/>
<path fill-rule="evenodd" clip-rule="evenodd" d="M503.001 1.06771C502.431 1.02283 501.855 0.999996 501.275 0.999996C488.421 0.999995 478 12.1929 478 26C478 39.8071 488.421 51 501.275 51C501.855 51 502.431 50.9772 503.001 50.9323L503.001 1.06771Z" fill="#799FCC"/>
<path fill-rule="evenodd" clip-rule="evenodd" d="M534 342C534 328.193 522.807 317 509 317C495.193 317 484 328.193 484 342C484 355.807 495.193 367 509 367C522.807 367 534 355.807 534 342Z" fill="#C15191"/>
<path d="M57.069 51.0061V2.01482H66.1713V42.6776H86.9667V51.0061H57.069Z" fill="#171717"/>
<path d="M86.7184 22.9411L83.7776 18.9518C85.6214 18.112 87.2552 17.0738 88.6789 15.8374C90.1026 14.6009 91.0945 13.3878 91.6547 12.198C90.4877 12.268 89.4257 12.093 88.4688 11.6731C87.5119 11.2532 86.7417 10.635 86.1582 9.81843C85.5981 9.00191 85.318 8.04541 85.318 6.94894C85.318 5.26924 85.8548 3.91615 86.9284 2.88966C88.0254 1.83985 89.4257 1.31494 91.1295 1.31494C93.0434 1.31494 94.5954 1.9565 95.7857 3.2396C96.976 4.49938 97.5712 6.22574 97.5712 8.41868C97.5712 10.1217 97.1627 11.8247 96.3459 13.5278C95.5523 15.2075 94.3504 16.8405 92.7399 18.4269C91.1295 20.0133 89.1223 21.518 86.7184 22.9411Z" fill="#171717"/>
<path d="M95.9126 51.0061L114.713 2.01482H124.865L144.05 51.0061H133.792L129.626 39.9131H109.916L105.89 51.0061H95.9126ZM112.157 32.1795H127.316L119.614 12.303L112.157 32.1795Z" fill="#171717"/>
<path d="M150.814 51.0061V2.01482H169.789C173.266 2.01482 176.289 2.60971 178.856 3.7995C181.424 4.96596 183.407 6.64566 184.808 8.83861C186.208 11.0316 186.908 13.6444 186.908 16.6772C186.908 19.1035 186.407 21.2381 185.403 23.0811C184.399 24.9241 183.011 26.4521 181.237 27.6653C179.486 28.8784 177.456 29.7299 175.145 30.2198L189.394 51.0061H178.471L165.798 31.8295H159.916V51.0061H150.814ZM159.916 24.3758H168.459C171.376 24.3758 173.652 23.7693 175.285 22.5562C176.919 21.3197 177.736 19.5234 177.736 17.1671C177.736 14.7176 176.989 12.8512 175.495 11.5681C174.002 10.285 171.808 9.64346 168.914 9.64346H159.916V24.3758Z" fill="#171717"/>
<path d="M206.925 51.0061V10.3433H193.376V2.01482H229.611V10.3433H216.062V51.0061H206.925Z" fill="#171717"/>
<path d="M270.686 52.0559C267.185 52.0559 263.766 51.5544 260.428 50.5512C257.114 49.5247 254.314 48.0666 252.026 46.177L256.437 39.2832C257.558 40.3097 258.9 41.1962 260.463 41.9427C262.027 42.6893 263.684 43.2725 265.435 43.6924C267.209 44.089 268.971 44.2873 270.721 44.2873C273.639 44.2873 276.008 43.7507 277.828 42.6776C279.648 41.5811 280.559 40.0064 280.559 37.9534C280.559 36.3437 279.929 35.0023 278.668 33.9292C277.408 32.8327 275.086 31.8062 271.701 30.8497L266.94 29.4849C262.156 28.1318 258.69 26.3238 256.542 24.0609C254.419 21.7746 253.357 18.9751 253.357 15.6624C253.357 13.4928 253.8 11.5098 254.687 9.71345C255.574 7.9171 256.823 6.36571 258.433 5.05928C260.067 3.75284 261.992 2.74969 264.209 2.04981C266.427 1.34994 268.842 1 271.456 1C274.887 1 278.073 1.50158 281.014 2.50473C283.955 3.48456 286.359 4.82599 288.226 6.52902L283.709 13.2128C282.729 12.303 281.574 11.5098 280.244 10.8333C278.913 10.1567 277.478 9.64346 275.937 9.29353C274.397 8.92026 272.845 8.73362 271.281 8.73362C269.437 8.73362 267.827 8.99025 266.45 9.50349C265.073 10.0167 263.999 10.7516 263.229 11.7081C262.459 12.6646 262.074 13.8311 262.074 15.2075C262.074 16.2106 262.331 17.0855 262.844 17.832C263.381 18.5785 264.291 19.2668 265.575 19.8966C266.858 20.5032 268.632 21.1448 270.896 21.8213L275.867 23.291C280.559 24.6675 283.978 26.4405 286.125 28.6101C288.272 30.7564 289.346 33.5559 289.346 37.0086C289.346 39.9714 288.599 42.5843 287.105 44.8472C285.612 47.1101 283.464 48.8832 280.664 50.1663C277.886 51.426 274.56 52.0559 270.686 52.0559Z" fill="#171717"/>
<path d="M318.462 52.0559C314.028 52.0559 310.305 51.1578 307.294 49.3614C304.307 47.5651 302.054 45.1272 300.537 42.0477C299.02 38.9449 298.262 35.4455 298.262 31.5496V2.01482H307.364V31.6546C307.364 35.6205 308.356 38.5833 310.34 40.543C312.324 42.5026 315.031 43.4825 318.462 43.4825C321.893 43.4825 324.589 42.5026 326.549 40.543C328.533 38.5833 329.525 35.6205 329.525 31.6546V2.01482H338.662V31.5496C338.662 35.4455 337.904 38.9449 336.387 42.0477C334.87 45.1272 332.617 47.5651 329.63 49.3614C326.642 51.1578 322.92 52.0559 318.462 52.0559Z" fill="#171717"/>
<path d="M350.749 51.0061V2.01482H368.288C373.073 2.01482 376.924 3.06463 379.841 5.16426C382.782 7.24056 384.252 10.32 384.252 14.4026C384.252 15.919 383.902 17.3538 383.202 18.7069C382.502 20.0599 381.592 21.2497 380.471 22.2762C379.351 23.2794 378.161 24.0492 376.9 24.5858C379.561 25.4257 381.755 26.9304 383.482 29.1C385.209 31.2696 386.073 33.9175 386.073 37.0436C386.073 39.7964 385.373 42.2227 383.972 44.3223C382.595 46.4219 380.623 48.0666 378.056 49.2564C375.488 50.4229 372.454 51.0061 368.953 51.0061H350.749ZM359.851 44.0424H367.518C370.575 44.0424 372.863 43.4358 374.38 42.2227C375.897 40.9862 376.655 39.1432 376.655 36.6937C376.655 34.2908 375.897 32.4477 374.38 31.1646C372.886 29.8815 370.61 29.24 367.553 29.24H359.851V44.0424ZM359.851 22.6612H366.958C368.662 22.6612 370.144 22.3812 371.404 21.8213C372.664 21.2614 373.645 20.4565 374.345 19.4067C375.045 18.3336 375.395 17.0621 375.395 15.5924C375.395 13.4461 374.648 11.8131 373.154 10.6933C371.684 9.55015 369.572 8.97858 366.818 8.97858H359.851V22.6612Z" fill="#171717"/>
<path d="M401.377 52.0559C399.019 52.0559 396.802 51.741 394.725 51.1111C392.648 50.5045 390.722 49.6647 388.948 48.5915L391.819 41.1729C393.243 41.9894 394.643 42.6193 396.02 43.0625C397.421 43.5058 398.809 43.7274 400.186 43.7274C402.917 43.7274 405.018 43.0509 406.488 41.6978C407.958 40.3447 408.694 38.1751 408.694 35.1889V2.01482H417.796V36.8336C417.796 39.8898 417.154 42.561 415.87 44.8472C414.587 47.1101 412.72 48.8832 410.269 50.1663C407.842 51.426 404.878 52.0559 401.377 52.0559Z" fill="#171717"/>
<path d="M430.066 51.0061V2.01482H462.659V9.9934H439.168V21.8563H459.264V29.31H439.168V42.9576H462.905V51.0061H430.066Z" fill="#171717"/>
<path d="M531.442 51.0061V10.3433H517.894V2.01482H554.128V10.3433H540.58V51.0061H531.442Z" fill="#171717"/>
<path d="M562.034 51.0061V2.01482H571.136V51.0061H562.034Z" fill="#171717"/>
<path d="M596.072 51.0061L577.483 2.01482H587.74L601.184 39.1082L614.207 2.01482H624.255L606.05 51.0061H596.072Z" fill="#171717"/>
<path d="M630.616 51.0061V2.01482H663.209V9.9934H639.718V21.8563H659.814V29.31H639.718V42.9576H663.455V51.0061H630.616Z" fill="#171717"/>
<path d="M674.035 51.0061V2.01482H682.823L702.358 33.9991L698.787 34.0341L717.517 2.01482H726.199V51.0061H717.342L717.482 13.9127L719.162 14.5076L703.338 40.8929H696.931L680.722 14.5076L682.228 13.9127L682.368 51.0061H674.035Z" fill="#171717"/>
<path d="M738.583 51.0061V2.01482H771.177V9.9934H747.686V21.8563H767.781V29.31H747.686V42.9576H771.422V51.0061H738.583Z" fill="#171717"/>
<path d="M782.003 51.0061V2.01482H790.825L814.036 35.7488V2.01482H822.893V51.0061H814.071L790.86 16.8522V51.0061H782.003Z" fill="#171717"/>
<path d="M844.336 51.0061V10.3433H830.788V2.01482H867.022V10.3433H853.473V51.0061H844.336Z" fill="#171717"/>
<path d="M868.884 62.2391L865.943 58.2498C867.787 57.41 869.421 56.3718 870.844 55.1354C872.268 53.8989 873.26 52.6858 873.82 51.496C872.653 51.566 871.591 51.3911 870.634 50.9711C869.677 50.5512 868.907 49.933 868.324 49.1165C867.764 48.2999 867.484 47.3434 867.484 46.247C867.484 44.5673 868.02 43.2142 869.094 42.1877C870.191 41.1379 871.591 40.613 873.295 40.613C875.209 40.613 876.761 41.2545 877.951 42.5376C879.142 43.7974 879.737 45.5238 879.737 47.7167C879.737 49.4197 879.328 51.1111 878.511 52.7908C877.718 54.4938 876.516 56.1385 874.906 57.7249C873.295 59.3113 871.288 60.816 868.884 62.2391Z" fill="#171717"/>
<path d="M906.107 51.0061V2.01482H938.701V9.9934H915.21V21.8563H935.305V29.31H915.21V42.9576H938.946V51.0061H906.107Z" fill="#171717"/>
<path d="M958.594 51.0061V10.3433H945.046V2.01482H981.28V10.3433H967.732V51.0061H958.594Z" fill="#171717"/>
<path d="M1006.01 51.0061V2.01482H1015.11V42.6776H1035.9V51.0061H1006.01Z" fill="#171717"/>
<path d="M1044.5 51.0061V2.01482H1077.1V9.9934H1053.6V21.8563H1073.7V29.31H1053.6V42.9576H1077.34V51.0061H1044.5Z" fill="#171717"/>
<path d="M1104.27 52.0559C1100.77 52.0559 1097.35 51.5544 1094.01 50.5512C1090.7 49.5247 1087.9 48.0666 1085.61 46.177L1090.02 39.2832C1091.14 40.3097 1092.48 41.1962 1094.05 41.9427C1095.61 42.6893 1097.27 43.2725 1099.02 43.6924C1100.79 44.089 1102.56 44.2873 1104.31 44.2873C1107.22 44.2873 1109.59 43.7507 1111.41 42.6776C1113.23 41.5811 1114.14 40.0064 1114.14 37.9534C1114.14 36.3437 1113.51 35.0023 1112.25 33.9292C1110.99 32.8327 1108.67 31.8062 1105.29 30.8497L1100.53 29.4849C1095.74 28.1318 1092.27 26.3238 1090.13 24.0609C1088 21.7746 1086.94 18.9751 1086.94 15.6624C1086.94 13.4928 1087.39 11.5098 1088.27 9.71345C1089.16 7.9171 1090.41 6.36571 1092.02 5.05928C1093.65 3.75284 1095.58 2.74969 1097.79 2.04981C1100.01 1.34994 1102.43 1 1105.04 1C1108.47 1 1111.66 1.50158 1114.6 2.50473C1117.54 3.48456 1119.94 4.82599 1121.81 6.52902L1117.29 13.2128C1116.31 12.303 1115.16 11.5098 1113.83 10.8333C1112.5 10.1567 1111.06 9.64346 1109.52 9.29353C1107.98 8.92026 1106.43 8.73362 1104.87 8.73362C1103.02 8.73362 1101.41 8.99025 1100.04 9.50349C1098.66 10.0167 1097.58 10.7516 1096.81 11.7081C1096.04 12.6646 1095.66 13.8311 1095.66 15.2075C1095.66 16.2106 1095.92 17.0855 1096.43 17.832C1096.97 18.5785 1097.88 19.2668 1099.16 19.8966C1100.44 20.5032 1102.22 21.1448 1104.48 21.8213L1109.45 23.291C1114.14 24.6675 1117.56 26.4405 1119.71 28.6101C1121.86 30.7564 1122.93 33.5559 1122.93 37.0086C1122.93 39.9714 1122.18 42.5843 1120.69 44.8472C1119.2 47.1101 1117.05 48.8832 1114.25 50.1663C1111.47 51.426 1108.15 52.0559 1104.27 52.0559Z" fill="#171717"/>
<path d="M66.7654 155.987L48.1756 106.996H58.4332L71.8767 144.09L84.9001 106.996H94.9477L76.743 155.987H66.7654Z" fill="#171717"/>
<path d="M121.194 157.037C116.76 157.037 113.037 156.139 110.026 154.343C107.039 152.546 104.787 150.109 103.269 147.029C101.752 143.926 100.994 140.427 100.994 136.531V106.996H110.096V136.636C110.096 140.602 111.088 143.565 113.072 145.524C115.056 147.484 117.763 148.464 121.194 148.464C124.625 148.464 127.321 147.484 129.281 145.524C131.265 143.565 132.257 140.602 132.257 136.636V106.996H141.394V136.531C141.394 140.427 140.636 143.926 139.119 147.029C137.602 150.109 135.349 152.546 132.362 154.343C129.375 156.139 125.652 157.037 121.194 157.037Z" fill="#171717"/>
<path d="M153.481 155.987V106.996H186.074V114.975H162.583V126.838H182.678V134.291H162.583V147.939H186.319V155.987H153.481Z" fill="#171717"/>
<path d="M213.249 157.037C209.748 157.037 206.329 156.536 202.992 155.533C199.678 154.506 196.877 153.048 194.59 151.158L199.001 144.265C200.121 145.291 201.463 146.178 203.027 146.924C204.59 147.671 206.248 148.254 207.998 148.674C209.772 149.07 211.534 149.269 213.284 149.269C216.202 149.269 218.571 148.732 220.391 147.659C222.212 146.562 223.122 144.988 223.122 142.935C223.122 141.325 222.492 139.984 221.231 138.911C219.971 137.814 217.649 136.788 214.265 135.831L209.503 134.466C204.719 133.113 201.253 131.305 199.106 129.042C196.982 126.756 195.92 123.956 195.92 120.644C195.92 118.474 196.363 116.491 197.25 114.695C198.137 112.898 199.386 111.347 200.996 110.041C202.63 108.734 204.555 107.731 206.773 107.031C208.99 106.331 211.406 105.981 214.02 105.981C217.45 105.981 220.636 106.483 223.577 107.486C226.518 108.466 228.922 109.807 230.789 111.51L226.273 118.194C225.292 117.284 224.137 116.491 222.807 115.815C221.477 115.138 220.041 114.625 218.501 114.275C216.96 113.902 215.408 113.715 213.845 113.715C212.001 113.715 210.39 113.972 209.013 114.485C207.636 114.998 206.563 115.733 205.792 116.689C205.022 117.646 204.637 118.812 204.637 120.189C204.637 121.192 204.894 122.067 205.407 122.813C205.944 123.56 206.854 124.248 208.138 124.878C209.422 125.485 211.196 126.126 213.459 126.803L218.431 128.272C223.122 129.649 226.541 131.422 228.688 133.591C230.836 135.738 231.909 138.537 231.909 141.99C231.909 144.953 231.162 147.566 229.669 149.829C228.175 152.091 226.028 153.865 223.227 155.148C220.45 156.407 217.124 157.037 213.249 157.037Z" fill="#171717"/>
<path d="M308.218 155.987V106.996H340.811V114.975H317.32V126.838H337.416V134.291H317.32V147.939H341.057V155.987H308.218Z" fill="#171717"/>
<path d="M390.899 157.037C385.811 157.037 381.353 155.987 377.526 153.888C373.698 151.788 370.722 148.837 368.598 145.034C366.474 141.208 365.412 136.718 365.412 131.562C365.412 127.806 366.031 124.376 367.268 121.274C368.528 118.148 370.302 115.441 372.589 113.155C374.9 110.845 377.607 109.072 380.711 107.836C383.839 106.576 387.27 105.946 391.004 105.946C394.855 105.946 398.146 106.436 400.877 107.416C403.607 108.373 406.035 109.737 408.159 111.51L403.502 118.964C402.009 117.541 400.258 116.491 398.251 115.815C396.267 115.115 394.062 114.765 391.634 114.765C389.044 114.765 386.721 115.15 384.667 115.92C382.614 116.689 380.863 117.809 379.416 119.279C377.969 120.725 376.86 122.475 376.09 124.528C375.32 126.581 374.935 128.891 374.935 131.457C374.935 134.98 375.623 137.989 377 140.485C378.378 142.958 380.338 144.859 382.882 146.189C385.426 147.519 388.448 148.184 391.949 148.184C394.307 148.184 396.606 147.822 398.846 147.099C401.11 146.376 403.246 145.221 405.253 143.635L409.454 151.298C407.12 153.118 404.413 154.529 401.332 155.533C398.274 156.536 394.797 157.037 390.899 157.037Z" fill="#171717"/>
<path d="M417.348 155.987V106.996H426.45V126.033H448.716V106.996H457.818V155.987H448.716V134.361H426.45V155.987H417.348Z" fill="#171717"/>
<path d="M464.602 155.987L483.402 106.996H493.554L512.739 155.987H502.482L498.316 144.894H478.606L474.579 155.987H464.602ZM480.846 137.161H496.005L488.303 117.284L480.846 137.161Z" fill="#171717"/>
<path d="M560.112 159.032L554.895 153.048C552.841 154.284 550.612 155.264 548.208 155.987C545.828 156.687 543.331 157.037 540.717 157.037C537.122 157.037 533.761 156.396 530.634 155.113C527.53 153.83 524.811 152.045 522.477 149.759C520.166 147.449 518.357 144.743 517.05 141.64C515.743 138.537 515.09 135.155 515.09 131.492C515.09 127.852 515.732 124.481 517.015 121.379C518.322 118.276 520.143 115.57 522.477 113.26C524.834 110.95 527.588 109.154 530.739 107.871C533.89 106.588 537.309 105.946 540.997 105.946C544.614 105.946 547.987 106.588 551.114 107.871C554.265 109.154 557.019 110.95 559.376 113.26C561.734 115.57 563.577 118.264 564.908 121.344C566.238 124.423 566.903 127.759 566.903 131.352C566.903 134.735 566.32 137.907 565.153 140.87C563.986 143.81 562.375 146.399 560.322 148.639L565.398 154.378L560.112 159.032ZM540.997 149.199C542.56 149.199 544.077 148.989 545.548 148.569C547.018 148.149 548.372 147.554 549.609 146.784L542.572 138.631L547.508 134.291L554.58 142.34C555.654 140.94 556.506 139.33 557.136 137.511C557.766 135.668 558.081 133.661 558.081 131.492C558.081 127.969 557.311 124.901 555.77 122.288C554.253 119.676 552.2 117.658 549.609 116.235C547.042 114.788 544.171 114.065 540.997 114.065C538.616 114.065 536.399 114.473 534.345 115.29C532.314 116.106 530.541 117.284 529.024 118.824C527.506 120.34 526.316 122.172 525.453 124.318C524.612 126.441 524.192 128.832 524.192 131.492C524.192 135.015 524.927 138.106 526.398 140.765C527.868 143.425 529.875 145.501 532.419 146.994C534.963 148.464 537.822 149.199 540.997 149.199Z" fill="#171717"/>
<path d="M596.073 157.037C591.639 157.037 587.916 156.139 584.905 154.343C581.918 152.546 579.665 150.109 578.148 147.029C576.631 143.926 575.873 140.427 575.873 136.531V106.996H584.975V136.636C584.975 140.602 585.967 143.565 587.951 145.524C589.935 147.484 592.642 148.464 596.073 148.464C599.504 148.464 602.2 147.484 604.16 145.524C606.144 143.565 607.136 140.602 607.136 136.636V106.996H616.273V136.531C616.273 140.427 615.515 143.926 613.998 147.029C612.481 150.109 610.228 152.546 607.241 154.343C604.253 156.139 600.531 157.037 596.073 157.037Z" fill="#171717"/>
<path d="M628.36 155.987V106.996H660.953V114.975H637.462V126.838H657.557V134.291H637.462V147.939H661.198V155.987H628.36Z" fill="#171717"/>
<path d="M704.949 157.037C701.448 157.037 698.029 156.536 694.691 155.533C691.377 154.506 688.576 153.048 686.289 151.158L690.7 144.265C691.821 145.291 693.163 146.178 694.726 146.924C696.29 147.671 697.947 148.254 699.698 148.674C701.471 149.07 703.234 149.269 704.984 149.269C707.901 149.269 710.27 148.732 712.091 147.659C713.911 146.562 714.822 144.988 714.822 142.935C714.822 141.325 714.191 139.984 712.931 138.911C711.671 137.814 709.349 136.788 705.964 135.831L701.203 134.466C696.418 133.113 692.953 131.305 690.805 129.042C688.682 126.756 687.62 123.956 687.62 120.644C687.62 118.474 688.063 116.491 688.95 114.695C689.837 112.898 691.085 111.347 692.696 110.041C694.33 108.734 696.255 107.731 698.472 107.031C700.69 106.331 703.105 105.981 705.719 105.981C709.15 105.981 712.336 106.483 715.277 107.486C718.217 108.466 720.621 109.807 722.489 111.51L717.972 118.194C716.992 117.284 715.837 116.491 714.507 115.815C713.176 115.138 711.741 114.625 710.2 114.275C708.66 113.902 707.108 113.715 705.544 113.715C703.7 113.715 702.09 113.972 700.713 114.485C699.336 114.998 698.262 115.733 697.492 116.689C696.722 117.646 696.337 118.812 696.337 120.189C696.337 121.192 696.594 122.067 697.107 122.813C697.644 123.56 698.554 124.248 699.838 124.878C701.121 125.485 702.895 126.126 705.159 126.803L710.13 128.272C714.822 129.649 718.241 131.422 720.388 133.591C722.535 135.738 723.609 138.537 723.609 141.99C723.609 144.953 722.862 147.566 721.368 149.829C719.875 152.091 717.727 153.865 714.927 155.148C712.149 156.407 708.823 157.037 704.949 157.037Z" fill="#171717"/>
<path d="M732.84 155.987V106.996H751.22C754.744 106.996 757.871 107.614 760.602 108.851C763.333 110.064 765.468 111.825 767.009 114.135C768.572 116.444 769.354 119.221 769.354 122.463C769.354 125.753 768.631 128.541 767.184 130.827C765.76 133.113 763.683 134.863 760.952 136.076C758.221 137.266 754.907 137.861 751.009 137.861H741.942V155.987H732.84ZM741.942 130.127H750.974C753.892 130.127 756.167 129.521 757.801 128.307C759.435 127.094 760.252 125.205 760.252 122.638C760.252 120.072 759.412 118.148 757.731 116.864C756.074 115.558 753.845 114.905 751.044 114.905H741.942V130.127Z" fill="#171717"/>
<path d="M777.763 155.987V106.996H810.357V114.975H786.866V126.838H806.961V134.291H786.866V147.939H810.602V155.987H777.763Z" fill="#171717"/>
<path d="M843.624 157.037C838.536 157.037 834.078 155.987 830.25 153.888C826.423 151.788 823.447 148.837 821.323 145.034C819.199 141.208 818.137 136.718 818.137 131.562C818.137 127.806 818.756 124.376 819.993 121.274C821.253 118.148 823.027 115.441 825.314 113.155C827.625 110.845 830.332 109.072 833.436 107.836C836.564 106.576 839.995 105.946 843.729 105.946C847.58 105.946 850.871 106.436 853.601 107.416C856.332 108.373 858.759 109.737 860.883 111.51L856.227 118.964C854.733 117.541 852.983 116.491 850.976 115.815C848.992 115.115 846.786 114.765 844.359 114.765C841.768 114.765 839.446 115.15 837.392 115.92C835.338 116.689 833.588 117.809 832.141 119.279C830.694 120.725 829.585 122.475 828.815 124.528C828.045 126.581 827.66 128.891 827.66 131.457C827.66 134.98 828.348 137.989 829.725 140.485C831.102 142.958 833.063 144.859 835.607 146.189C838.151 147.519 841.173 148.184 844.674 148.184C847.031 148.184 849.33 147.822 851.571 147.099C853.835 146.376 855.97 145.221 857.977 143.635L862.179 151.298C859.845 153.118 857.137 154.529 854.056 155.533C850.999 156.536 847.521 157.037 843.624 157.037Z" fill="#171717"/>
<path d="M879.14 155.987V115.325H865.591V106.996H901.826V115.325H888.277V155.987H879.14Z" fill="#171717"/>
<path d="M961.808 155.987V115.325H948.259V106.996H984.494V115.325H970.945V155.987H961.808Z" fill="#171717"/>
<path d="M992.399 155.987V106.996H1024.99V114.975H1001.5V126.838H1021.6V134.291H1001.5V147.939H1025.24V155.987H992.399Z" fill="#171717"/>
<path d="M1055.7 157.037C1051.27 157.037 1047.55 156.139 1044.54 154.343C1041.55 152.546 1039.3 150.109 1037.78 147.029C1036.26 143.926 1035.5 140.427 1035.5 136.531V106.996H1044.61V136.636C1044.61 140.602 1045.6 143.565 1047.58 145.524C1049.57 147.484 1052.27 148.464 1055.7 148.464C1059.13 148.464 1061.83 147.484 1063.79 145.524C1065.77 143.565 1066.77 140.602 1066.77 136.636V106.996H1075.9V136.531C1075.9 140.427 1075.15 143.926 1073.63 147.029C1072.11 150.109 1069.86 152.546 1066.87 154.343C1063.88 156.139 1060.16 157.037 1055.7 157.037Z" fill="#171717"/>
<path d="M1087.99 155.987V106.996H1106.97C1110.44 106.996 1113.47 107.591 1116.03 108.781C1118.6 109.947 1120.58 111.627 1121.98 113.82C1123.38 116.013 1124.08 118.626 1124.08 121.659C1124.08 124.085 1123.58 126.219 1122.58 128.062C1121.58 129.905 1120.19 131.434 1118.41 132.647C1116.66 133.86 1114.63 134.711 1112.32 135.201L1126.57 155.987H1115.65L1102.97 136.811H1097.09V155.987H1087.99ZM1097.09 129.357H1105.64C1108.55 129.357 1110.83 128.751 1112.46 127.538C1114.1 126.301 1114.91 124.505 1114.91 122.148C1114.91 119.699 1114.17 117.833 1112.67 116.549C1111.18 115.266 1108.98 114.625 1106.09 114.625H1097.09V129.357Z" fill="#171717"/>
<path d="M17 260.969V211.978H35.3798C38.904 211.978 42.0315 212.596 44.7622 213.832C47.4929 215.045 49.6285 216.807 51.1689 219.116C52.7326 221.426 53.5145 224.202 53.5145 227.445C53.5145 230.734 52.7909 233.522 51.3439 235.808C49.9202 238.095 47.843 239.844 45.1123 241.057C42.3816 242.247 39.0674 242.842 35.1697 242.842H26.1024V260.969H17ZM26.1024 235.108H35.1347C38.0521 235.108 40.3277 234.502 41.9615 233.289C43.5952 232.076 44.4121 230.186 44.4121 227.62C44.4121 225.054 43.5719 223.129 41.8915 221.846C40.2344 220.539 38.0054 219.886 35.2047 219.886H26.1024V235.108Z" fill="#171717"/>
<path d="M61.9237 260.969V211.978H94.5172V219.956H71.0261V231.819H91.1213V239.273H71.0261V252.92H94.7623V260.969H61.9237Z" fill="#171717"/>
<path d="M125.228 262.019C120.794 262.019 117.071 261.12 114.06 259.324C111.073 257.528 108.821 255.09 107.304 252.01C105.787 248.908 105.028 245.408 105.028 241.512V211.978H114.13V241.617C114.13 245.583 115.122 248.546 117.106 250.506C119.09 252.465 121.797 253.445 125.228 253.445C128.659 253.445 131.355 252.465 133.315 250.506C135.299 248.546 136.291 245.583 136.291 241.617V211.978H145.429V241.512C145.429 245.408 144.67 248.908 143.153 252.01C141.636 255.09 139.384 257.528 136.396 259.324C133.409 261.12 129.686 262.019 125.228 262.019Z" fill="#171717"/>
<path d="M204.627 260.969V211.978H237.22V219.956H213.729V231.819H233.824V239.273H213.729V252.92H237.465V260.969H204.627Z" fill="#171717"/>
<path d="M248.046 260.969V211.978H256.868L280.079 245.712V211.978H288.937V260.969H280.115L256.903 226.815V260.969H248.046Z" fill="#171717"/>
<path d="M310.379 260.969V220.306H296.831V211.978H333.065V220.306H319.517V260.969H310.379Z" fill="#171717"/>
<path d="M357.791 260.969V211.978H376.171C379.695 211.978 382.823 212.596 385.554 213.832C388.284 215.045 390.42 216.807 391.96 219.116C393.524 221.426 394.306 224.202 394.306 227.445C394.306 230.734 393.582 233.522 392.135 235.808C390.712 238.095 388.634 239.844 385.904 241.057C383.173 242.247 379.859 242.842 375.961 242.842H366.894V260.969H357.791ZM366.894 235.108H375.926C378.844 235.108 381.119 234.502 382.753 233.289C384.387 232.076 385.204 230.186 385.204 227.62C385.204 225.054 384.363 223.129 382.683 221.846C381.026 220.539 378.797 219.886 375.996 219.886H366.894V235.108Z" fill="#171717"/>
<path d="M402.715 260.969V211.978H421.69C425.168 211.978 428.19 212.572 430.757 213.762C433.325 214.929 435.309 216.608 436.709 218.801C438.109 220.994 438.81 223.607 438.81 226.64C438.81 229.066 438.308 231.201 437.304 233.044C436.301 234.887 434.912 236.415 433.138 237.628C431.388 238.841 429.357 239.693 427.046 240.183L441.295 260.969H430.372L417.699 241.792H411.818V260.969H402.715ZM411.818 234.339H420.36C423.277 234.339 425.553 233.732 427.186 232.519C428.82 231.282 429.637 229.486 429.637 227.13C429.637 224.68 428.89 222.814 427.397 221.531C425.903 220.248 423.709 219.606 420.815 219.606H411.818V234.339Z" fill="#171717"/>
<path d="M449.759 260.969V211.978H482.352V219.956H458.861V231.819H478.956V239.273H458.861V252.92H482.597V260.969H449.759Z" fill="#171717"/>
<path d="M493.178 260.969V211.978H502L525.211 245.712V211.978H534.069V260.969H525.246L502.035 226.815V260.969H493.178Z" fill="#171717"/>
<path d="M546.444 260.969V211.978H562.268C567.193 211.978 571.545 213.016 575.326 215.092C579.107 217.168 582.06 220.049 584.184 223.735C586.307 227.421 587.369 231.679 587.369 236.508C587.369 240.101 586.763 243.402 585.549 246.411C584.335 249.398 582.608 251.975 580.368 254.145C578.15 256.315 575.501 257.994 572.421 259.184C569.363 260.374 565.979 260.969 562.268 260.969H546.444ZM555.546 252.5H561.428C563.878 252.5 566.107 252.139 568.114 251.416C570.122 250.692 571.849 249.643 573.296 248.266C574.766 246.89 575.886 245.21 576.657 243.227C577.45 241.244 577.847 239.004 577.847 236.508C577.847 233.125 577.158 230.244 575.781 227.865C574.428 225.462 572.514 223.63 570.04 222.371C567.589 221.088 564.719 220.446 561.428 220.446H555.546V252.5Z" fill="#171717"/>
<path d="M643.744 260.969V211.978H676.338V219.956H652.847V231.819H672.942V239.273H652.847V252.92H676.583V260.969H643.744Z" fill="#171717"/>
<path d="M703.985 260.969V211.978H719.809C724.733 211.978 729.086 213.016 732.867 215.092C736.648 217.168 739.601 220.049 741.724 223.735C743.848 227.421 744.91 231.679 744.91 236.508C744.91 240.101 744.303 243.402 743.09 246.411C741.876 249.398 740.149 251.975 737.908 254.145C735.691 256.315 733.042 257.994 729.961 259.184C726.904 260.374 723.52 260.969 719.809 260.969H703.985ZM713.087 252.5H718.969C721.419 252.5 723.648 252.139 725.655 251.416C727.662 250.692 729.39 249.643 730.837 248.266C732.307 246.89 733.427 245.21 734.197 243.227C734.991 241.244 735.388 239.004 735.388 236.508C735.388 233.125 734.699 230.244 733.322 227.865C731.969 225.462 730.055 223.63 727.581 222.371C725.13 221.088 722.259 220.446 718.969 220.446H713.087V252.5Z" fill="#171717"/>
<path d="M754.242 260.969V211.978H763.344V260.969H754.242Z" fill="#171717"/>
<path d="M775.712 260.969V211.978H806.66V220.306H784.815V233.079H804.525V241.127H784.815V260.969H775.712Z" fill="#171717"/>
<path d="M816.738 260.969V211.978H847.686V220.306H825.841V233.079H845.551V241.127H825.841V260.969H816.738Z" fill="#171717"/>
<path d="M857.765 260.969V211.978H890.358V219.956H866.867V231.819H886.962V239.273H866.867V252.92H890.603V260.969H857.765ZM869.003 206.693L875.864 195.041H885.212L877.475 206.693H869.003Z" fill="#171717"/>
<path d="M901.184 260.969V211.978H920.159C923.637 211.978 926.659 212.572 929.226 213.762C931.794 214.929 933.778 216.608 935.178 218.801C936.578 220.994 937.279 223.607 937.279 226.64C937.279 229.066 936.777 231.201 935.773 233.044C934.77 234.887 933.381 236.415 931.607 237.628C929.857 238.841 927.826 239.693 925.516 240.183L939.764 260.969H928.841L916.168 241.792H910.286V260.969H901.184ZM910.286 234.339H918.829C921.746 234.339 924.022 233.732 925.656 232.519C927.289 231.282 928.106 229.486 928.106 227.13C928.106 224.68 927.359 222.814 925.866 221.531C924.372 220.248 922.178 219.606 919.284 219.606H910.286V234.339Z" fill="#171717"/>
<path d="M948.228 260.969V211.978H980.821V219.956H957.33V231.819H977.425V239.273H957.33V252.92H981.066V260.969H948.228Z" fill="#171717"/>
<path d="M991.647 260.969V211.978H1000.47L1023.68 245.712V211.978H1032.54V260.969H1023.72L1000.5 226.815V260.969H991.647Z" fill="#171717"/>
<path d="M1053.98 260.969V220.306H1040.43V211.978H1076.67V220.306H1063.12V260.969H1053.98Z" fill="#171717"/>
<path d="M1084.57 260.969V211.978H1117.16V219.956H1093.67V231.819H1113.77V239.273H1093.67V252.92H1117.41V260.969H1084.57Z" fill="#171717"/>
<path d="M1144.34 262.019C1140.84 262.019 1137.42 261.517 1134.08 260.514C1130.77 259.487 1127.97 258.029 1125.68 256.14L1130.09 249.246C1131.21 250.272 1132.55 251.159 1134.12 251.905C1135.68 252.652 1137.34 253.235 1139.09 253.655C1140.86 254.052 1142.62 254.25 1144.38 254.25C1147.29 254.25 1149.66 253.713 1151.48 252.64C1153.3 251.544 1154.21 249.969 1154.21 247.916C1154.21 246.306 1153.58 244.965 1152.32 243.892C1151.06 242.795 1148.74 241.769 1145.36 240.812L1140.59 239.448C1135.81 238.095 1132.34 236.287 1130.2 234.024C1128.07 231.737 1127.01 228.938 1127.01 225.625C1127.01 223.455 1127.45 221.473 1128.34 219.676C1129.23 217.88 1130.48 216.328 1132.09 215.022C1133.72 213.716 1135.65 212.712 1137.86 212.013C1140.08 211.313 1142.5 210.963 1145.11 210.963C1148.54 210.963 1151.73 211.464 1154.67 212.467C1157.61 213.447 1160.01 214.789 1161.88 216.492L1157.36 223.176C1156.38 222.266 1155.23 221.473 1153.9 220.796C1152.57 220.119 1151.13 219.606 1149.59 219.256C1148.05 218.883 1146.5 218.696 1144.94 218.696C1143.09 218.696 1141.48 218.953 1140.1 219.466C1138.73 219.979 1137.65 220.714 1136.88 221.671C1136.11 222.627 1135.73 223.794 1135.73 225.17C1135.73 226.173 1135.98 227.048 1136.5 227.795C1137.04 228.541 1137.95 229.229 1139.23 229.859C1140.51 230.466 1142.29 231.107 1144.55 231.784L1149.52 233.254C1154.21 234.63 1157.63 236.403 1159.78 238.573C1161.93 240.719 1163 243.519 1163 246.971C1163 249.934 1162.25 252.547 1160.76 254.81C1159.27 257.073 1157.12 258.846 1154.32 260.129C1151.54 261.389 1148.21 262.019 1144.34 262.019Z" fill="#171717"/>
<path d="M445.451 365.95V316.959H476.399V325.287H454.553V338.06H474.263V346.109H454.553V365.95H445.451Z" fill="#171717"/>
<path d="M544.529 365.95V316.959H563.504C566.982 316.959 570.004 317.554 572.571 318.744C575.139 319.91 577.123 321.59 578.523 323.783C579.923 325.976 580.624 328.588 580.624 331.621C580.624 334.048 580.122 336.182 579.118 338.025C578.115 339.868 576.726 341.396 574.952 342.609C573.202 343.822 571.171 344.674 568.861 345.164L583.109 365.95H572.186L559.513 346.774H553.632V365.95H544.529ZM553.632 339.32H562.174C565.091 339.32 567.367 338.713 569.001 337.5C570.634 336.264 571.451 334.467 571.451 332.111C571.451 329.662 570.704 327.795 569.211 326.512C567.717 325.229 565.523 324.588 562.629 324.588H553.632V339.32Z" fill="#171717"/>
<path d="M591.573 365.95V316.959H600.36L619.895 348.943L616.324 348.978L635.054 316.959H643.736V365.95H634.879L635.019 328.857L636.699 329.452L620.875 355.837H614.469L598.259 329.452L599.765 328.857L599.905 365.95H591.573Z" fill="#171717"/>
<path d="M656.121 365.95V316.959H688.714V324.937H665.223V336.8H685.318V344.254H665.223V357.902H688.959V365.95H656.121Z" fill="#171717"/>
<path d="M715.889 367C712.388 367 708.969 366.498 705.632 365.495C702.318 364.469 699.517 363.011 697.23 361.121L701.641 354.227C702.761 355.254 704.103 356.14 705.667 356.887C707.23 357.633 708.888 358.217 710.638 358.637C712.412 359.033 714.174 359.231 715.924 359.231C718.842 359.231 721.211 358.695 723.031 357.622C724.852 356.525 725.762 354.95 725.762 352.897C725.762 351.288 725.132 349.946 723.871 348.873C722.611 347.777 720.289 346.75 716.905 345.794L712.143 344.429C707.359 343.076 703.893 341.268 701.746 339.005C699.622 336.719 698.56 333.919 698.56 330.606C698.56 328.437 699.003 326.454 699.89 324.658C700.777 322.861 702.026 321.31 703.636 320.003C705.27 318.697 707.195 317.694 709.413 316.994C711.63 316.294 714.046 315.944 716.66 315.944C720.09 315.944 723.276 316.446 726.217 317.449C729.158 318.429 731.562 319.77 733.429 321.473L728.913 328.157C727.932 327.247 726.777 326.454 725.447 325.777C724.117 325.101 722.681 324.588 721.141 324.238C719.6 323.864 718.048 323.678 716.484 323.678C714.641 323.678 713.03 323.934 711.653 324.448C710.276 324.961 709.203 325.696 708.432 326.652C707.662 327.609 707.277 328.775 707.277 330.152C707.277 331.155 707.534 332.03 708.047 332.776C708.584 333.523 709.494 334.211 710.778 334.841C712.062 335.447 713.836 336.089 716.099 336.765L721.071 338.235C725.762 339.612 729.181 341.385 731.328 343.554C733.476 345.7 734.549 348.5 734.549 351.953C734.549 354.915 733.802 357.528 732.309 359.791C730.815 362.054 728.668 363.827 725.867 365.11C723.09 366.37 719.764 367 715.889 367Z" fill="#171717"/>
</svg>
