<svg width="1180" height="368" viewBox="0 0 1180 368" fill="none" xmlns="http://www.w3.org/2000/svg">
<path fill-rule="evenodd" clip-rule="evenodd" d="M687.001 317C673.193 317 662.001 328.193 662.001 342C662.001 355.807 673.193 367 687.001 367C700.808 367 712.001 355.807 712.001 342C712.001 328.193 700.808 317 687.001 317Z" fill="#198F76"/>
<path fill-rule="evenodd" clip-rule="evenodd" d="M521 234.942C520.969 221.162 509.788 210 496 210C482.193 210 471 221.193 471 235C471 248.807 482.193 260 496 260C509.788 260 520.969 248.838 521 235.058L521 234.942Z" fill="#198F76"/>
<path fill-rule="evenodd" clip-rule="evenodd" d="M1066 105C1052.19 105 1041 116.193 1041 130C1041 143.807 1052.19 155 1066 155C1079.81 155 1091 143.807 1091 130C1091 116.193 1079.81 105 1066 105Z" fill="#C15191"/>
<path fill-rule="evenodd" clip-rule="evenodd" d="M218 104C204.193 104 193 115.193 193 129C193 142.807 204.193 154 218 154C231.807 154 243 142.807 243 129C243 115.193 231.807 104 218 104Z" fill="#799FCC"/>
<path fill-rule="evenodd" clip-rule="evenodd" d="M494.275 -1.50902e-07C494.855 -1.00146e-07 495.431 0.0228347 496.001 0.0677109L496.001 49.9323C495.431 49.9772 494.855 50 494.275 50C481.42 50 471 38.8071 471 25C471 11.1929 481.42 -1.27466e-06 494.275 -1.50902e-07Z" fill="#198F76"/>
<path fill-rule="evenodd" clip-rule="evenodd" d="M291.001 0.0677071C290.431 0.0228309 289.855 -3.91484e-06 289.275 -3.9656e-06C276.42 -5.08936e-06 266 11.1929 266 25C266 38.8071 276.42 50 289.275 50C289.855 50 290.431 49.9772 291.001 49.9323L291.001 0.0677071Z" fill="#C15191"/>
<path d="M97 3.8147e-06C93.7169 3.52768e-06 90.466 0.646648 87.4329 1.90301C84.3998 3.15938 81.6438 5.00087 79.3223 7.32234C77.0009 9.6438 75.1594 12.3998 73.903 15.4329C72.6466 18.4661 72 21.717 72 25C72 28.2831 72.6466 31.534 73.903 34.5671C75.1594 37.6002 77.0009 40.3562 79.3223 42.6777C81.6438 44.9991 84.3998 46.8406 87.4329 48.097C90.4661 49.3534 93.717 50 97 50L97 25L97 3.8147e-06Z" fill="#799FCC"/>
<path d="M16 50.05V1.05H25.03V35.385L47.99 1.05H56.88V50.05H47.85V15.435L24.82 50.05H16Z" fill="#171717"/>
<path d="M148.404 50.05L128.454 24.36L146.269 1.05H157.539L139.549 24.325L160.129 50.05H148.404ZM118.129 50.05V1.05H127.229V20.09H136.364V28.42H127.229V50.05H118.129Z" fill="#171717"/>
<path d="M169.021 50.925L165.591 42.595C168.438 41.965 170.969 41.02 173.186 39.76C175.426 38.5 177.433 36.8083 179.206 34.685C181.003 32.5617 182.671 29.9133 184.211 26.74L196.636 1.05H207.171L192.506 30.065C190.826 33.4017 189.123 36.2833 187.396 38.71C185.669 41.1367 183.861 43.1783 181.971 44.835C180.104 46.4683 178.098 47.775 175.951 48.755C173.828 49.735 171.518 50.4583 169.021 50.925ZM182.776 35.245L164.051 1.05H175.111L188.901 27.37L182.776 35.245Z" fill="#171717"/>
<path d="M233.806 51.1C228.719 51.1 224.263 50.05 220.436 47.95C216.609 45.85 213.634 42.8983 211.511 39.095C209.388 35.2683 208.326 30.7767 208.326 25.62C208.326 21.8633 208.944 18.4333 210.181 15.33C211.441 12.2033 213.214 9.49667 215.501 7.21C217.811 4.9 220.518 3.12667 223.621 1.89C226.748 0.63 230.178 0 233.911 0C237.761 0 241.051 0.490001 243.781 1.47C246.511 2.42667 248.938 3.79167 251.061 5.565L246.406 13.02C244.913 11.5967 243.163 10.5467 241.156 9.87C239.173 9.17 236.968 8.82 234.541 8.82C231.951 8.82 229.629 9.205 227.576 9.975C225.523 10.745 223.773 11.865 222.326 13.335C220.879 14.7817 219.771 16.5317 219.001 18.585C218.231 20.6383 217.846 22.9483 217.846 25.515C217.846 29.0383 218.534 32.0483 219.911 34.545C221.288 37.0183 223.248 38.92 225.791 40.25C228.334 41.58 231.356 42.245 234.856 42.245C237.213 42.245 239.511 41.8833 241.751 41.16C244.014 40.4367 246.149 39.2817 248.156 37.695L252.356 45.36C250.023 47.18 247.316 48.5917 244.236 49.595C241.179 50.5983 237.703 51.1 233.806 51.1Z" fill="#171717"/>
<path d="M317.165 50.05V9.38H303.62V1.05H339.845V9.38H326.3V50.05H317.165Z" fill="#171717"/>
<path d="M347.748 50.05V1.05H365.283C370.066 1.05 373.916 2.1 376.833 4.2C379.773 6.27667 381.243 9.35667 381.243 13.44C381.243 14.9567 380.893 16.3917 380.193 17.745C379.493 19.0983 378.583 20.2883 377.463 21.315C376.343 22.3183 375.153 23.0883 373.893 23.625C376.553 24.465 378.746 25.97 380.473 28.14C382.2 30.31 383.063 32.9583 383.063 36.085C383.063 38.8383 382.363 41.265 380.963 43.365C379.586 45.465 377.615 47.11 375.048 48.3C372.481 49.4667 369.448 50.05 365.948 50.05H347.748ZM356.848 43.085H364.513C367.57 43.085 369.856 42.4783 371.373 41.265C372.89 40.0283 373.648 38.185 373.648 35.735C373.648 33.3317 372.89 31.4883 371.373 30.205C369.88 28.9217 367.605 28.28 364.548 28.28H356.848V43.085ZM356.848 21.7H363.953C365.656 21.7 367.138 21.42 368.398 20.86C369.658 20.3 370.638 19.495 371.338 18.445C372.038 17.3717 372.388 16.1 372.388 14.63C372.388 12.4833 371.641 10.85 370.148 9.73C368.678 8.58667 366.566 8.015 363.813 8.015H356.848V21.7Z" fill="#171717"/>
<path d="M415.515 51.1C411.805 51.1 408.363 50.4583 405.19 49.175C402.04 47.8683 399.298 46.06 396.965 43.75C394.632 41.44 392.823 38.7333 391.54 35.63C390.257 32.5267 389.615 29.1667 389.615 25.55C389.615 21.91 390.257 18.5383 391.54 15.435C392.823 12.3317 394.632 9.625 396.965 7.315C399.298 5.005 402.04 3.20833 405.19 1.925C408.363 0.641666 411.805 0 415.515 0C419.202 0 422.62 0.653333 425.77 1.96C428.92 3.26667 431.662 5.08667 433.995 7.42C436.328 9.75333 438.148 12.4717 439.455 15.575C440.762 18.655 441.415 21.98 441.415 25.55C441.415 29.1667 440.762 32.5267 439.455 35.63C438.148 38.7333 436.328 41.44 433.995 43.75C431.662 46.06 428.92 47.8683 425.77 49.175C422.62 50.4583 419.202 51.1 415.515 51.1ZM415.515 42.525C417.825 42.525 419.972 42.1283 421.955 41.335C423.962 40.5183 425.7 39.375 427.17 37.905C428.664 36.4117 429.818 34.6267 430.635 32.55C431.475 30.45 431.895 28.1167 431.895 25.55C431.895 22.12 431.172 19.1333 429.725 16.59C428.279 14.0467 426.318 12.075 423.845 10.675C421.372 9.275 418.595 8.575 415.515 8.575C413.182 8.575 411.023 8.97167 409.04 9.765C407.057 10.5583 405.319 11.7017 403.825 13.195C402.355 14.6883 401.2 16.4733 400.36 18.55C399.543 20.6267 399.135 22.96 399.135 25.55C399.135 28.98 399.847 31.9667 401.27 34.51C402.717 37.0533 404.677 39.025 407.15 40.425C409.623 41.825 412.412 42.525 415.515 42.525Z" fill="#171717"/>
<path d="M517.791 50.925L514.361 42.595C517.207 41.965 519.739 41.02 521.956 39.76C524.196 38.5 526.202 36.8083 527.976 34.685C529.772 32.5617 531.441 29.9133 532.981 26.74L545.406 1.05H555.941L541.276 30.065C539.596 33.4017 537.892 36.2833 536.166 38.71C534.439 41.1367 532.631 43.1783 530.741 44.835C528.874 46.4683 526.867 47.775 524.721 48.755C522.597 49.735 520.287 50.4583 517.791 50.925ZM531.546 35.245L512.821 1.05H523.881L537.671 27.37L531.546 35.245Z" fill="#171717"/>
<path d="M561.918 50.05V1.05H593.558V9.03H571.018V21H579.453C584.843 21 589.148 22.225 592.368 24.675C595.611 27.125 597.233 30.7417 597.233 35.525C597.233 38.605 596.521 41.23 595.098 43.4C593.675 45.5467 591.633 47.1917 588.973 48.335C586.336 49.4783 583.151 50.05 579.418 50.05H561.918ZM571.018 43.085H578.718C581.635 43.085 583.875 42.4433 585.438 41.16C587.025 39.8767 587.818 38.0217 587.818 35.595C587.818 33.2383 587.048 31.3833 585.508 30.03C583.968 28.6533 581.833 27.965 579.103 27.965H571.018V43.085Z" fill="#171717"/>
<path d="M615.895 9.38H602.35V1.05H624.995L615.895 9.38ZM615.895 50.05V1.05H624.995V19.18H634.27C637.793 19.18 640.908 19.7983 643.615 21.035C646.345 22.2483 648.492 24.01 650.055 26.32C651.618 28.63 652.4 31.4067 652.4 34.65C652.4 37.1233 651.992 39.3167 651.175 41.23C650.358 43.1433 649.168 44.7533 647.605 46.06C646.042 47.3667 644.117 48.3583 641.83 49.035C639.567 49.7117 636.977 50.05 634.06 50.05H615.895ZM624.995 42.315H634.025C636.942 42.315 639.217 41.7083 640.85 40.495C642.483 39.2817 643.3 37.3917 643.3 34.825C643.3 32.2583 642.46 30.3333 640.78 29.05C639.123 27.7433 636.895 27.09 634.095 27.09H624.995V42.315Z" fill="#171717"/>
<path d="M660.766 50.05V1.05H693.351V9.03H669.866V20.895H689.956V28.35H669.866V42H693.596V50.05H660.766Z" fill="#171717"/>
<path d="M734.449 50.05L714.499 24.36L732.314 1.05H743.584L725.594 24.325L746.174 50.05H734.449ZM704.174 50.05V1.05H713.274V20.09H722.409V28.42H713.274V50.05H704.174Z" fill="#171717"/>
<path d="M761.706 50.05V9.38H748.161V1.05H784.386V9.38H770.841V50.05H761.706Z" fill="#171717"/>
<path d="M792.289 50.05V1.05H801.319V35.385L824.279 1.05H833.169V50.05H824.139V15.435L801.109 50.05H792.289Z" fill="#171717"/>
<path d="M845.541 50.05V1.05H863.076C867.859 1.05 871.709 2.1 874.626 4.2C877.566 6.27667 879.036 9.35667 879.036 13.44C879.036 14.9567 878.686 16.3917 877.986 17.745C877.286 19.0983 876.376 20.2883 875.256 21.315C874.136 22.3183 872.946 23.0883 871.686 23.625C874.346 24.465 876.539 25.97 878.266 28.14C879.993 30.31 880.856 32.9583 880.856 36.085C880.856 38.8383 880.156 41.265 878.756 43.365C877.379 45.465 875.408 47.11 872.841 48.3C870.274 49.4667 867.241 50.05 863.741 50.05H845.541ZM854.641 43.085H862.306C865.363 43.085 867.649 42.4783 869.166 41.265C870.683 40.0283 871.441 38.185 871.441 35.735C871.441 33.3317 870.683 31.4883 869.166 30.205C867.673 28.9217 865.398 28.28 862.341 28.28H854.641V43.085ZM854.641 21.7H861.746C863.449 21.7 864.931 21.42 866.191 20.86C867.451 20.3 868.431 19.495 869.131 18.445C869.831 17.3717 870.181 16.1 870.181 14.63C870.181 12.4833 869.434 10.85 867.941 9.73C866.471 8.58667 864.359 8.015 861.606 8.015H854.641V21.7Z" fill="#171717"/>
<path d="M890.453 50.05V1.05H899.553V20.09H921.813V1.05H930.913V50.05H921.813V28.42H899.553V50.05H890.453Z" fill="#171717"/>
<path d="M966.15 51.1C962.44 51.1 958.998 50.4583 955.825 49.175C952.675 47.8683 949.933 46.06 947.6 43.75C945.267 41.44 943.458 38.7333 942.175 35.63C940.892 32.5267 940.25 29.1667 940.25 25.55C940.25 21.91 940.892 18.5383 942.175 15.435C943.458 12.3317 945.267 9.625 947.6 7.315C949.933 5.005 952.675 3.20833 955.825 1.925C958.998 0.641666 962.44 0 966.15 0C969.837 0 973.255 0.653333 976.405 1.96C979.555 3.26667 982.297 5.08667 984.63 7.42C986.963 9.75333 988.783 12.4717 990.09 15.575C991.397 18.655 992.05 21.98 992.05 25.55C992.05 29.1667 991.397 32.5267 990.09 35.63C988.783 38.7333 986.963 41.44 984.63 43.75C982.297 46.06 979.555 47.8683 976.405 49.175C973.255 50.4583 969.837 51.1 966.15 51.1ZM966.15 42.525C968.46 42.525 970.607 42.1283 972.59 41.335C974.597 40.5183 976.335 39.375 977.805 37.905C979.298 36.4117 980.453 34.6267 981.27 32.55C982.11 30.45 982.53 28.1167 982.53 25.55C982.53 22.12 981.807 19.1333 980.36 16.59C978.913 14.0467 976.953 12.075 974.48 10.675C972.007 9.275 969.23 8.575 966.15 8.575C963.817 8.575 961.658 8.97167 959.675 9.765C957.692 10.5583 955.953 11.7017 954.46 13.195C952.99 14.6883 951.835 16.4733 950.995 18.55C950.178 20.6267 949.77 22.96 949.77 25.55C949.77 28.98 950.482 31.9667 951.905 34.51C953.352 37.0533 955.312 39.025 957.785 40.425C960.258 41.825 963.047 42.525 966.15 42.525Z" fill="#171717"/>
<path d="M998.845 61.285L995.905 57.295C997.748 56.455 999.382 55.4167 1000.8 54.18C1002.23 52.9433 1003.22 51.73 1003.78 50.54C1002.61 50.61 1001.55 50.435 1000.59 50.015C999.638 49.595 998.868 48.9767 998.285 48.16C997.725 47.3433 997.445 46.3867 997.445 45.29C997.445 43.61 997.982 42.2567 999.055 41.23C1000.15 40.18 1001.55 39.655 1003.25 39.655C1005.17 39.655 1006.72 40.2967 1007.91 41.58C1009.1 42.84 1009.69 44.5667 1009.69 46.76C1009.69 48.4633 1009.29 50.155 1008.47 51.835C1007.68 53.5383 1006.47 55.1833 1004.86 56.77C1003.25 58.3567 1001.25 59.8617 998.845 61.285Z" fill="#171717"/>
<path d="M1045.12 50.05V9.38H1031.58V1.05H1067.8V9.38H1054.26V50.05H1045.12Z" fill="#171717"/>
<path d="M1066.96 50.05L1085.76 1.05H1095.91L1115.09 50.05H1104.83L1100.67 38.955H1080.96L1076.94 50.05H1066.96ZM1083.2 31.22H1098.36L1090.66 11.34L1083.2 31.22Z" fill="#171717"/>
<path d="M1152.12 50.05L1132.17 24.36L1149.99 1.05H1161.26L1143.27 24.325L1163.85 50.05H1152.12ZM1121.85 50.05V1.05H1130.95V20.09H1140.08V28.42H1130.95V50.05H1121.85Z" fill="#171717"/>
<path d="M87.6748 155.05V106.05H96.7048V140.385L119.665 106.05H128.555V155.05H119.525V120.435L96.4948 155.05H87.6748Z" fill="#171717"/>
<path d="M166.808 155.05V114.38H153.263V106.05H189.488V114.38H175.943V155.05H166.808Z" fill="#171717"/>
<path d="M280.715 155.05V135.52C278.685 136.057 276.701 136.488 274.765 136.815C272.851 137.142 270.798 137.305 268.605 137.305C264.825 137.305 261.581 136.687 258.875 135.45C256.191 134.19 254.126 132.23 252.68 129.57C251.233 126.91 250.51 123.445 250.51 119.175V106.05H259.61V117.88C259.61 121.987 260.496 124.88 262.27 126.56C264.066 128.24 266.668 129.08 270.075 129.08C272.221 129.08 274.123 128.963 275.78 128.73C277.436 128.497 279.081 128.193 280.715 127.82V106.05H289.815V155.05H280.715Z" fill="#171717"/>
<path d="M332.462 155.05L312.512 129.36L330.327 106.05H341.597L323.607 129.325L344.187 155.05H332.462ZM302.187 155.05V106.05H311.287V125.09H320.422V133.42H311.287V155.05H302.187Z" fill="#171717"/>
<path d="M351.679 155.05V106.05H360.709V140.385L383.669 106.05H392.559V155.05H383.529V120.435L360.499 155.05H351.679Z" fill="#171717"/>
<path d="M435.782 156.1C432.002 156.1 428.56 155.622 425.457 154.665C422.354 153.708 419.612 152.332 417.232 150.535L421.397 143.325C423.077 144.795 425.095 145.962 427.452 146.825C429.832 147.665 432.317 148.085 434.907 148.085C437.147 148.085 439.084 147.77 440.717 147.14C442.35 146.51 443.61 145.635 444.497 144.515C445.407 143.395 445.862 142.088 445.862 140.595C445.862 138.262 445.069 136.5 443.482 135.31C441.895 134.097 439.434 133.49 436.097 133.49H426.402V126.315H435.397C437.264 126.315 438.862 126.047 440.192 125.51C441.545 124.973 442.584 124.215 443.307 123.235C444.03 122.232 444.392 121.03 444.392 119.63C444.392 118.253 444.03 117.098 443.307 116.165C442.607 115.232 441.545 114.532 440.122 114.065C438.722 113.575 437.007 113.33 434.977 113.33C432.714 113.33 430.52 113.703 428.397 114.45C426.297 115.197 424.5 116.235 423.007 117.565L418.772 110.88C420.895 108.99 423.462 107.543 426.472 106.54C429.482 105.513 432.702 105 436.132 105C439.725 105 442.817 105.525 445.407 106.575C447.997 107.602 449.98 109.083 451.357 111.02C452.757 112.957 453.457 115.278 453.457 117.985C453.457 119.478 453.119 120.937 452.442 122.36C451.765 123.76 450.867 125.02 449.747 126.14C448.65 127.237 447.449 128.077 446.142 128.66C448.872 129.547 451.077 131.028 452.757 133.105C454.46 135.182 455.3 137.795 455.277 140.945C455.277 143.792 454.46 146.358 452.827 148.645C451.217 150.932 448.942 152.752 446.002 154.105C443.085 155.435 439.679 156.1 435.782 156.1Z" fill="#171717"/>
<path d="M464.95 155.05V106.05H483.325C486.849 106.05 489.975 106.668 492.705 107.905C495.435 109.118 497.57 110.88 499.11 113.19C500.674 115.5 501.455 118.277 501.455 121.52C501.455 124.81 500.732 127.598 499.285 129.885C497.862 132.172 495.785 133.922 493.055 135.135C490.325 136.325 487.012 136.92 483.115 136.92H474.05V155.05H464.95ZM474.05 129.185H483.08C485.997 129.185 488.272 128.578 489.905 127.365C491.539 126.152 492.355 124.262 492.355 121.695C492.355 119.128 491.515 117.203 489.835 115.92C488.179 114.613 485.95 113.96 483.15 113.96H474.05V129.185Z" fill="#171717"/>
<path d="M509.862 155.05V106.05H542.447V114.03H518.962V125.895H539.052V133.35H518.962V147H542.692V155.05H509.862Z" fill="#171717"/>
<path d="M553.271 155.05V106.05H562.37V125.09H584.63V106.05H593.731V155.05H584.63V133.42H562.37V155.05H553.271Z" fill="#171717"/>
<path d="M606.112 155.05V106.05H615.142V140.385L638.102 106.05H646.992V155.05H637.962V120.435L614.932 155.05H606.112Z" fill="#171717"/>
<path d="M655.479 155.05L669.829 134.61C666.096 133.77 663.179 132.183 661.079 129.85C659.003 127.517 657.964 124.53 657.964 120.89C657.964 117.787 658.688 115.127 660.134 112.91C661.604 110.693 663.669 109.002 666.329 107.835C669.013 106.645 672.163 106.05 675.779 106.05H694.049V155.05H684.949V135.87H679.034L666.014 155.05H655.479ZM675.989 128.415H684.949V113.68H676.374C673.481 113.68 671.218 114.287 669.584 115.5C667.951 116.69 667.134 118.487 667.134 120.89C667.134 123.317 667.881 125.183 669.374 126.49C670.868 127.773 673.073 128.415 675.989 128.415Z" fill="#171717"/>
<path d="M753.487 155.05L733.537 129.36L751.352 106.05H762.622L744.632 129.325L765.212 155.05H753.487ZM723.212 155.05V106.05H732.312V125.09H741.447V133.42H732.312V155.05H723.212Z" fill="#171717"/>
<path d="M767.446 155.05L786.241 106.05H796.391L815.571 155.05H805.316L801.151 143.955H781.446L777.421 155.05H767.446ZM783.686 136.22H798.841L791.141 116.34L783.686 136.22Z" fill="#171717"/>
<path d="M875.245 155.05L857.29 129.255L873.32 106.05H883.715L867.51 129.22L886.025 155.05H875.245ZM817.635 155.05L836.045 129.71L820.085 106.05H830.795L846.265 129.325L828.03 155.05H817.635ZM847.28 155.05V133.035H839.055V125.335H847.28V106.05H856.38V125.335H864.605V133.035H856.38V155.05H847.28Z" fill="#171717"/>
<path d="M925.208 155.05V114.38H907.428V120.54C907.428 126.35 907.137 131.297 906.553 135.38C905.993 139.44 905.095 142.788 903.858 145.425C902.645 148.038 901.023 150.092 898.993 151.585C896.987 153.078 894.537 154.175 891.643 154.875L888.458 147.385C890.535 146.895 892.238 146.16 893.568 145.18C894.922 144.2 895.972 142.742 896.718 140.805C897.465 138.868 897.99 136.267 898.293 133C898.597 129.733 898.748 125.58 898.748 120.54V106.05H934.308V155.05H925.208ZM888.458 167.475V147.385L894.233 147.665L897.383 146.72H942.148V167.475H933.538V155.05H897.068V167.475H888.458Z" fill="#171717"/>
<path d="M972.2 156.1C968.49 156.1 965.048 155.458 961.875 154.175C958.725 152.868 955.983 151.06 953.65 148.75C951.316 146.44 949.508 143.733 948.225 140.63C946.941 137.527 946.3 134.167 946.3 130.55C946.3 126.91 946.941 123.538 948.225 120.435C949.508 117.332 951.316 114.625 953.65 112.315C955.983 110.005 958.725 108.208 961.875 106.925C965.048 105.642 968.49 105 972.2 105C975.886 105 979.305 105.653 982.455 106.96C985.605 108.267 988.346 110.087 990.68 112.42C993.013 114.753 994.833 117.472 996.14 120.575C997.446 123.655 998.1 126.98 998.1 130.55C998.1 134.167 997.446 137.527 996.14 140.63C994.833 143.733 993.013 146.44 990.68 148.75C988.346 151.06 985.605 152.868 982.455 154.175C979.305 155.458 975.886 156.1 972.2 156.1ZM972.2 147.525C974.51 147.525 976.656 147.128 978.64 146.335C980.646 145.518 982.385 144.375 983.855 142.905C985.348 141.412 986.503 139.627 987.32 137.55C988.16 135.45 988.58 133.117 988.58 130.55C988.58 127.12 987.856 124.133 986.41 121.59C984.963 119.047 983.003 117.075 980.53 115.675C978.056 114.275 975.28 113.575 972.2 113.575C969.866 113.575 967.708 113.972 965.725 114.765C963.741 115.558 962.003 116.702 960.51 118.195C959.04 119.688 957.885 121.473 957.045 123.55C956.228 125.627 955.82 127.96 955.82 130.55C955.82 133.98 956.531 136.967 957.955 139.51C959.401 142.053 961.361 144.025 963.835 145.425C966.308 146.825 969.096 147.525 972.2 147.525Z" fill="#171717"/>
<path d="M1007.38 155.05V106.05H1035.87V114.38H1016.48V155.05H1007.38Z" fill="#171717"/>
<path d="M79.9373 261.1C76.1573 261.1 72.7157 260.622 69.6123 259.665C66.509 258.708 63.7673 257.332 61.3873 255.535L65.5523 248.325C67.2323 249.795 69.2507 250.962 71.6073 251.825C73.9873 252.665 76.4723 253.085 79.0623 253.085C81.3023 253.085 83.239 252.77 84.8723 252.14C86.5057 251.51 87.7657 250.635 88.6523 249.515C89.5623 248.395 90.0173 247.088 90.0173 245.595C90.0173 243.262 89.224 241.5 87.6373 240.31C86.0507 239.097 83.589 238.49 80.2523 238.49H70.5573V231.315H79.5523C81.419 231.315 83.0173 231.047 84.3473 230.51C85.7007 229.973 86.739 229.215 87.4623 228.235C88.1857 227.232 88.5473 226.03 88.5473 224.63C88.5473 223.253 88.1857 222.098 87.4623 221.165C86.7624 220.232 85.7007 219.532 84.2773 219.065C82.8773 218.575 81.1623 218.33 79.1323 218.33C76.869 218.33 74.6757 218.703 72.5523 219.45C70.4523 220.197 68.6557 221.235 67.1623 222.565L62.9273 215.88C65.0507 213.99 67.6173 212.543 70.6273 211.54C73.6373 210.513 76.8573 210 80.2873 210C83.8807 210 86.9724 210.525 89.5623 211.575C92.1523 212.602 94.1357 214.083 95.5123 216.02C96.9123 217.957 97.6123 220.278 97.6123 222.985C97.6123 224.478 97.274 225.937 96.5973 227.36C95.9207 228.76 95.0223 230.02 93.9023 231.14C92.8057 232.237 91.604 233.077 90.2973 233.66C93.0273 234.547 95.2323 236.028 96.9123 238.105C98.6157 240.182 99.4557 242.795 99.4324 245.945C99.4324 248.792 98.6157 251.358 96.9823 253.645C95.3723 255.932 93.0974 257.752 90.1573 259.105C87.2407 260.435 83.834 261.1 79.9373 261.1Z" fill="#171717"/>
<path d="M109.105 260.05V211.05H127.48C131.004 211.05 134.13 211.668 136.86 212.905C139.59 214.118 141.725 215.88 143.265 218.19C144.829 220.5 145.61 223.277 145.61 226.52C145.61 229.81 144.887 232.598 143.44 234.885C142.017 237.172 139.94 238.922 137.21 240.135C134.48 241.325 131.167 241.92 127.27 241.92H118.205V260.05H109.105ZM118.205 234.185H127.235C130.152 234.185 132.427 233.578 134.06 232.365C135.694 231.152 136.51 229.262 136.51 226.695C136.51 224.128 135.67 222.203 133.99 220.92C132.334 219.613 130.105 218.96 127.305 218.96H118.205V234.185Z" fill="#171717"/>
<path d="M154.018 260.05V211.05H163.048V245.385L186.008 211.05H194.898V260.05H185.868V225.435L162.838 260.05H154.018Z" fill="#171717"/>
<path d="M216.335 260.05V219.38H202.79V211.05H239.015V219.38H225.47V260.05H216.335Z" fill="#171717"/>
<path d="M246.918 260.05V211.05H279.503V219.03H256.018V230.895H276.108V238.35H256.018V252H279.748V260.05H246.918Z" fill="#171717"/>
<path d="M288.961 260.925L285.706 252.56C287.293 252.07 288.634 251.498 289.731 250.845C290.851 250.168 291.784 249.258 292.531 248.115C293.278 246.972 293.861 245.467 294.281 243.6C294.724 241.71 295.028 239.33 295.191 236.46C295.378 233.567 295.471 230.043 295.471 225.89V211.05H330.611V260.05H321.511V219.38H304.151V225.54C304.151 230.58 303.988 234.943 303.661 238.63C303.358 242.317 302.856 245.443 302.156 248.01C301.456 250.577 300.511 252.7 299.321 254.38C298.155 256.06 296.72 257.413 295.016 258.44C293.313 259.467 291.295 260.295 288.961 260.925Z" fill="#171717"/>
<path d="M339.078 260.05L353.428 239.61C349.695 238.77 346.778 237.183 344.678 234.85C342.601 232.517 341.563 229.53 341.563 225.89C341.563 222.787 342.286 220.127 343.733 217.91C345.203 215.693 347.268 214.002 349.928 212.835C352.611 211.645 355.761 211.05 359.378 211.05H377.648V260.05H368.548V240.87H362.633L349.613 260.05H339.078ZM359.588 233.415H368.548V218.68H359.973C357.08 218.68 354.816 219.287 353.183 220.5C351.55 221.69 350.733 223.487 350.733 225.89C350.733 228.317 351.48 230.183 352.973 231.49C354.466 232.773 356.671 233.415 359.588 233.415Z" fill="#171717"/>
<path d="M406.811 260.05V211.05H415.596L435.126 243.04L431.556 243.075L450.281 211.05H458.961V260.05H450.106L450.246 222.95L451.926 223.545L436.106 249.935H429.701L413.496 223.545L415.001 222.95L415.141 260.05H406.811Z" fill="#171717"/>
<path d="M529.379 260.05V211.05H557.869V219.38H538.479V260.05H529.379Z" fill="#171717"/>
<path d="M567.83 260.925L564.4 252.595C567.246 251.965 569.778 251.02 571.995 249.76C574.235 248.5 576.241 246.808 578.015 244.685C579.811 242.562 581.48 239.913 583.02 236.74L595.445 211.05H605.98L591.315 240.065C589.635 243.402 587.931 246.283 586.205 248.71C584.478 251.137 582.67 253.178 580.78 254.835C578.913 256.468 576.906 257.775 574.76 258.755C572.636 259.735 570.326 260.458 567.83 260.925ZM581.585 245.245L562.86 211.05H573.92L587.71 237.37L581.585 245.245Z" fill="#171717"/>
<path d="M621.706 260.05V219.38H608.161V211.05H644.386V219.38H630.841V260.05H621.706Z" fill="#171717"/>
<path d="M669.105 260.05V211.05H709.565V260.05H700.465V219.38H678.205V260.05H669.105Z" fill="#171717"/>
<path d="M721.947 260.05V211.05H740.322C743.846 211.05 746.972 211.668 749.702 212.905C752.432 214.118 754.567 215.88 756.107 218.19C757.671 220.5 758.452 223.277 758.452 226.52C758.452 229.81 757.729 232.598 756.282 234.885C754.859 237.172 752.782 238.922 750.052 240.135C747.322 241.325 744.009 241.92 740.112 241.92H731.047V260.05H721.947ZM731.047 234.185H740.077C742.994 234.185 745.269 233.578 746.902 232.365C748.536 231.152 749.352 229.262 749.352 226.695C749.352 224.128 748.512 222.203 746.832 220.92C745.176 219.613 742.947 218.96 740.147 218.96H731.047V234.185Z" fill="#171717"/>
<path d="M766.859 260.05V211.05H775.889V245.385L798.849 211.05H807.739V260.05H798.709V225.435L775.679 260.05H766.859Z" fill="#171717"/>
<path d="M820.111 260.05V211.05H829.211V230.09H851.471V211.05H860.571V260.05H851.471V238.42H829.211V260.05H820.111Z" fill="#171717"/>
<path d="M872.953 260.05V211.05H881.983V245.385L904.943 211.05H913.833V260.05H904.803V225.435L881.773 260.05H872.953Z" fill="#171717"/>
<path d="M926.205 260.05V211.05H934.99L954.52 243.04L950.95 243.075L969.675 211.05H978.355V260.05H969.5L969.64 222.95L971.32 223.545L955.5 249.935H949.095L932.89 223.545L934.395 222.95L934.535 260.05H926.205Z" fill="#171717"/>
<path d="M985.136 260.05L1003.93 211.05H1014.08L1033.26 260.05H1023.01L1018.84 248.955H999.136L995.111 260.05H985.136ZM1001.38 241.22H1016.53L1008.83 221.34L1001.38 241.22Z" fill="#171717"/>
<path d="M1045.94 260.05V219.38H1032.4V211.05H1068.62V219.38H1055.08V260.05H1045.94Z" fill="#171717"/>
<path d="M1076.53 260.05V211.05H1085.63V229.18H1094.9C1098.43 229.18 1101.54 229.798 1104.25 231.035C1106.98 232.248 1109.12 234.01 1110.69 236.32C1112.25 238.63 1113.03 241.407 1113.03 244.65C1113.03 247.123 1112.62 249.317 1111.81 251.23C1110.99 253.143 1109.8 254.753 1108.24 256.06C1106.67 257.367 1104.75 258.358 1102.46 259.035C1100.2 259.712 1097.61 260.05 1094.69 260.05H1076.53ZM1085.63 252.315H1094.66C1097.57 252.315 1099.85 251.708 1101.48 250.495C1103.12 249.282 1103.93 247.392 1103.93 244.825C1103.93 242.258 1103.09 240.333 1101.41 239.05C1099.76 237.743 1097.53 237.09 1094.73 237.09H1085.63V252.315Z" fill="#171717"/>
<path d="M291.078 365.05V316.05H309.453C312.976 316.05 316.103 316.668 318.833 317.905C321.563 319.118 323.698 320.88 325.238 323.19C326.801 325.5 327.583 328.277 327.583 331.52C327.583 334.81 326.86 337.598 325.413 339.885C323.99 342.172 321.913 343.922 319.183 345.135C316.453 346.325 313.14 346.92 309.243 346.92H300.178V365.05H291.078ZM300.178 339.185H309.208C312.125 339.185 314.4 338.578 316.033 337.365C317.666 336.152 318.483 334.262 318.483 331.695C318.483 329.128 317.643 327.203 315.963 325.92C314.306 324.613 312.078 323.96 309.278 323.96H300.178V339.185Z" fill="#171717"/>
<path d="M328.271 365.05L347.066 316.05H357.216L376.396 365.05H366.141L361.976 353.955H342.271L338.246 365.05H328.271ZM344.511 346.22H359.666L351.966 326.34L344.511 346.22Z" fill="#171717"/>
<path d="M397.193 366.1C393.413 366.1 389.972 365.622 386.868 364.665C383.765 363.708 381.023 362.332 378.643 360.535L382.808 353.325C384.488 354.795 386.507 355.962 388.863 356.825C391.243 357.665 393.728 358.085 396.318 358.085C398.558 358.085 400.495 357.77 402.128 357.14C403.762 356.51 405.022 355.635 405.908 354.515C406.818 353.395 407.273 352.088 407.273 350.595C407.273 348.262 406.48 346.5 404.893 345.31C403.307 344.097 400.845 343.49 397.508 343.49H387.813V336.315H396.808C398.675 336.315 400.273 336.047 401.603 335.51C402.957 334.973 403.995 334.215 404.718 333.235C405.442 332.232 405.803 331.03 405.803 329.63C405.803 328.253 405.442 327.098 404.718 326.165C404.018 325.232 402.957 324.532 401.533 324.065C400.133 323.575 398.418 323.33 396.388 323.33C394.125 323.33 391.932 323.703 389.808 324.45C387.708 325.197 385.912 326.235 384.418 327.565L380.183 320.88C382.307 318.99 384.873 317.543 387.883 316.54C390.893 315.513 394.113 315 397.543 315C401.137 315 404.228 315.525 406.818 316.575C409.408 317.602 411.392 319.083 412.768 321.02C414.168 322.957 414.868 325.278 414.868 327.985C414.868 329.478 414.53 330.937 413.853 332.36C413.177 333.76 412.278 335.02 411.158 336.14C410.062 337.237 408.86 338.077 407.553 338.66C410.283 339.547 412.488 341.028 414.168 343.105C415.872 345.182 416.712 347.795 416.688 350.945C416.688 353.792 415.872 356.358 414.238 358.645C412.628 360.932 410.353 362.752 407.413 364.105C404.497 365.435 401.09 366.1 397.193 366.1Z" fill="#171717"/>
<path d="M426.361 365.05V316.05H435.461V335.09H457.721V316.05H466.821V365.05H457.721V343.42H435.461V365.05H426.361Z" fill="#171717"/>
<path d="M479.203 365.05V316.05H488.303V334.18H497.228C500.751 334.18 503.866 334.798 506.573 336.035C509.303 337.248 511.45 339.01 513.013 341.32C514.576 343.63 515.358 346.407 515.358 349.65C515.358 352.123 514.95 354.317 514.133 356.23C513.316 358.143 512.126 359.753 510.563 361.06C509 362.367 507.075 363.358 504.788 364.035C502.525 364.712 499.935 365.05 497.018 365.05H479.203ZM488.303 357.315H496.983C499.9 357.315 502.175 356.708 503.808 355.495C505.441 354.282 506.258 352.392 506.258 349.825C506.258 347.258 505.418 345.333 503.738 344.05C502.081 342.743 499.853 342.09 497.053 342.09H488.303V357.315ZM522.113 365.05V316.05H531.213V365.05H522.113Z" fill="#171717"/>
<path d="M543.598 365.05V316.05H576.183V324.03H552.698V335.895H572.788V343.35H552.698V357H576.428V365.05H543.598Z" fill="#171717"/>
<path d="M623.492 367.29V361.165C618.966 361.025 614.964 360.103 611.487 358.4C608.034 356.673 605.327 354.27 603.367 351.19C601.407 348.11 600.427 344.458 600.427 340.235C600.427 335.988 601.407 332.325 603.367 329.245C605.327 326.165 608.034 323.773 611.487 322.07C614.964 320.343 618.966 319.41 623.492 319.27V313.285H632.382V319.27C636.886 319.41 640.876 320.343 644.352 322.07C647.829 323.773 650.547 326.165 652.507 329.245C654.467 332.325 655.447 335.988 655.447 340.235C655.447 344.458 654.467 348.11 652.507 351.19C650.547 354.27 647.829 356.673 644.352 358.4C640.876 360.103 636.886 361.025 632.382 361.165V367.29H623.492ZM623.492 353.5V326.935C620.622 327.028 618.149 327.623 616.072 328.72C613.996 329.817 612.397 331.345 611.277 333.305C610.157 335.242 609.597 337.552 609.597 340.235C609.597 342.918 610.157 345.228 611.277 347.165C612.397 349.102 613.996 350.618 616.072 351.715C618.149 352.788 620.622 353.383 623.492 353.5ZM632.382 353.5C635.252 353.383 637.726 352.788 639.802 351.715C641.879 350.618 643.477 349.102 644.597 347.165C645.717 345.228 646.277 342.918 646.277 340.235C646.277 337.552 645.717 335.242 644.597 333.305C643.477 331.345 641.879 329.817 639.802 328.72C637.726 327.623 635.252 327.028 632.382 326.935V353.5Z" fill="#171717"/>
<path d="M722.426 365.05V316.05H740.801C744.324 316.05 747.451 316.668 750.181 317.905C752.911 319.118 755.046 320.88 756.586 323.19C758.149 325.5 758.931 328.277 758.931 331.52C758.931 334.81 758.207 337.598 756.761 339.885C755.337 342.172 753.261 343.922 750.531 345.135C747.801 346.325 744.487 346.92 740.591 346.92H731.526V365.05H722.426ZM731.526 339.185H740.556C743.472 339.185 745.747 338.578 747.381 337.365C749.014 336.152 749.831 334.262 749.831 331.695C749.831 329.128 748.991 327.203 747.311 325.92C745.654 324.613 743.426 323.96 740.626 323.96H731.526V339.185Z" fill="#171717"/>
<path d="M767.338 365.05V316.05H776.123L795.653 348.04L792.083 348.075L810.808 316.05H819.488V365.05H810.633L810.773 327.95L812.453 328.545L796.633 354.935H790.228L774.023 328.545L775.528 327.95L775.668 365.05H767.338Z" fill="#171717"/>
<path d="M831.869 365.05V316.05H840.969V334.18H849.894C853.417 334.18 856.532 334.798 859.239 336.035C861.969 337.248 864.116 339.01 865.679 341.32C867.242 343.63 868.024 346.407 868.024 349.65C868.024 352.123 867.616 354.317 866.799 356.23C865.982 358.143 864.792 359.753 863.229 361.06C861.666 362.367 859.741 363.358 857.454 364.035C855.191 364.712 852.601 365.05 849.684 365.05H831.869ZM840.969 357.315H849.649C852.566 357.315 854.841 356.708 856.474 355.495C858.107 354.282 858.924 352.392 858.924 349.825C858.924 347.258 858.084 345.333 856.404 344.05C854.747 342.743 852.519 342.09 849.719 342.09H840.969V357.315ZM874.779 365.05V316.05H883.879V365.05H874.779Z" fill="#171717"/>
</svg>
