<svg width="280" height="280" viewBox="0 0 280 280" fill="none" xmlns="http://www.w3.org/2000/svg">
<path fill-rule="evenodd" clip-rule="evenodd" d="M280 0C280 0 280 0 280 0C202.68 -6.75957e-06 139.999 62.6801 139.999 140C139.999 217.32 202.679 280 280 280C280 280 280 280 280 280L280 0Z" fill="#198F76"/>
<path fill-rule="evenodd" clip-rule="evenodd" d="M-0.00112883 280C-0.000981332 280 -0.00083383 280 -0.000686328 280C77.3194 280 140 217.32 140 140C140 62.6801 77.3194 6.75957e-06 -0.00066185 0C-0.000809352 0 -0.000956853 2.40269e-10 -0.00110435 6.8394e-10L-0.00112883 280Z" fill="#198F76"/>
</svg>
