<svg width="1180" height="262" viewBox="0 0 1180 262" fill="none" xmlns="http://www.w3.org/2000/svg">
<path d="M125.731 1.0498L149.547 49.7998H101.916L125.731 1.0498Z" fill="#C15191"/>
<path d="M679.731 155.05L655.916 106.3L703.547 106.3L679.731 155.05Z" fill="#198F76"/>
<path fill-rule="evenodd" clip-rule="evenodd" d="M384.957 260.05C384.377 260.05 383.801 260.027 383.231 259.982V210.118C383.801 210.073 384.377 210.05 384.957 210.05C397.812 210.05 408.232 221.243 408.232 235.05C408.232 248.857 397.812 260.05 384.957 260.05Z" fill="#198F76"/>
<path fill-rule="evenodd" clip-rule="evenodd" d="M982.232 105.118C981.662 105.073 981.087 105.05 980.506 105.05C967.652 105.05 957.231 116.243 957.231 130.05C957.231 143.857 967.652 155.05 980.506 155.05C981.087 155.05 981.662 155.027 982.232 154.982L982.232 105.118Z" fill="#C15191"/>
<path fill-rule="evenodd" clip-rule="evenodd" d="M360.231 105.05C346.424 105.05 335.231 116.243 335.231 130.05C335.231 143.857 346.424 155.05 360.231 155.05C374.039 155.05 385.231 143.857 385.231 130.05C385.231 116.243 374.039 105.05 360.231 105.05Z" fill="#799FCC"/>
<path fill-rule="evenodd" clip-rule="evenodd" d="M833.231 211.05C819.424 211.05 808.231 222.243 808.231 236.05C808.231 249.857 819.424 261.05 833.231 261.05C847.039 261.05 858.231 249.857 858.231 236.05C858.231 222.243 847.039 211.05 833.231 211.05Z" fill="#799FCC"/>
<path d="M157.682 50.0308V1.0496H176.643C180.118 1.0496 183.139 1.64437 185.704 2.83391C188.269 4.00013 190.252 5.67949 191.651 7.87198C193.051 10.0645 193.75 12.6768 193.75 15.709C193.75 18.1347 193.249 20.2689 192.246 22.1115C191.243 23.9542 189.855 25.4819 188.083 26.6948C186.334 27.9076 184.305 28.759 181.996 29.2488L196.234 50.0308H185.319L172.655 30.8582H166.778V50.0308H157.682ZM166.778 23.406H175.314C178.229 23.406 180.503 22.7996 182.136 21.5867C183.768 20.3505 184.585 18.5546 184.585 16.1988C184.585 13.7497 183.838 11.8838 182.346 10.6009C180.853 9.3181 178.661 8.67668 175.769 8.67668H166.778V23.406Z" fill="#171717"/>
<path d="M213.752 50.0308V9.37641H200.214V1.0496H236.422V9.37641H222.883V50.0308H213.752Z" fill="#171717"/>
<path d="M277.468 51.0804C273.97 51.0804 270.553 50.579 267.218 49.576C263.906 48.5497 261.107 47.092 258.822 45.2027L263.23 38.3103C264.349 39.3366 265.69 40.2229 267.253 40.9693C268.815 41.7157 270.471 42.2988 272.22 42.7186C273.993 43.1151 275.754 43.3134 277.503 43.3134C280.418 43.3134 282.786 42.7769 284.605 41.704C286.424 40.6078 287.334 39.0334 287.334 36.9808C287.334 35.3714 286.704 34.0303 285.444 32.9574C284.185 31.8611 281.864 30.8349 278.483 29.8786L273.725 28.5141C268.944 27.1613 265.48 25.3536 263.335 23.0912C261.212 20.8054 260.151 18.0064 260.151 14.6944C260.151 12.5252 260.594 10.5426 261.48 8.74665C262.367 6.95067 263.614 5.3996 265.224 4.09343C266.856 2.78726 268.78 1.78432 270.996 1.08459C273.212 0.384854 275.626 0.0349882 278.238 0.0349882C281.666 0.0349882 284.85 0.536463 287.788 1.53941C290.727 2.51903 293.129 3.86019 294.995 5.56287L290.482 12.2453C289.503 11.3357 288.348 10.5426 287.019 9.86622C285.689 9.18981 284.255 8.67668 282.716 8.32681C281.176 7.95362 279.625 7.76702 278.063 7.76702C276.22 7.76702 274.611 8.02359 273.235 8.53673C271.859 9.04987 270.786 9.78459 270.016 10.7409C269.247 11.6972 268.862 12.8634 268.862 14.2395C268.862 15.2425 269.119 16.1172 269.632 16.8635C270.168 17.6099 271.078 18.298 272.36 18.9277C273.643 19.5342 275.416 20.1756 277.678 20.852L282.646 22.3214C287.334 23.6976 290.75 25.4702 292.896 27.6394C295.042 29.7853 296.115 32.5842 296.115 36.0362C296.115 38.9984 295.368 41.6107 293.876 43.8732C292.383 46.1357 290.237 47.9083 287.439 49.1912C284.663 50.4507 281.34 51.0804 277.468 51.0804Z" fill="#171717"/>
<path d="M325.21 51.0804C320.778 51.0804 317.058 50.1824 314.05 48.3865C311.065 46.5905 308.814 44.1531 307.298 41.0743C305.782 37.9721 305.024 34.4735 305.024 30.5783V1.0496H314.12V30.6832C314.12 34.6484 315.111 37.6106 317.093 39.5698C319.076 41.5291 321.781 42.5087 325.21 42.5087C328.638 42.5087 331.332 41.5291 333.291 39.5698C335.273 37.6106 336.265 34.6484 336.265 30.6832V1.0496H345.396V30.5783C345.396 34.4735 344.638 37.9721 343.122 41.0743C341.606 44.1531 339.355 46.5905 336.37 48.3865C333.384 50.1824 329.664 51.0804 325.21 51.0804Z" fill="#171717"/>
<path d="M357.473 50.0308V1.0496H375C379.781 1.0496 383.63 2.0992 386.545 4.19839C389.484 6.27426 390.953 9.35308 390.953 13.4349C390.953 14.9509 390.603 16.3854 389.903 17.7382C389.204 19.091 388.294 20.2806 387.175 21.3068C386.055 22.3098 384.866 23.0795 383.606 23.616C386.265 24.4556 388.457 25.9601 390.183 28.1292C391.909 30.2984 392.772 32.9457 392.772 36.0712C392.772 38.8235 392.072 41.2492 390.673 43.3484C389.297 45.4476 387.326 47.092 384.761 48.2815C382.195 49.4477 379.163 50.0308 375.665 50.0308H357.473ZM366.569 43.0685H374.23C377.286 43.0685 379.571 42.4621 381.087 41.2492C382.603 40.013 383.361 38.1704 383.361 35.7213C383.361 33.3189 382.603 31.4763 381.087 30.1934C379.595 28.9106 377.321 28.2692 374.266 28.2692H366.569V43.0685ZM366.569 21.6917H373.671C375.373 21.6917 376.854 21.4118 378.114 20.852C379.373 20.2922 380.353 19.4875 381.052 18.4379C381.752 17.365 382.102 16.0938 382.102 14.6244C382.102 12.4786 381.356 10.8458 379.863 9.72627C378.394 8.58338 376.283 8.01193 373.531 8.01193H366.569V21.6917Z" fill="#171717"/>
<path d="M408.065 51.0804C405.709 51.0804 403.494 50.7655 401.418 50.1358C399.342 49.5294 397.418 48.6897 395.646 47.6168L398.514 40.1996C399.937 41.0159 401.336 41.6457 402.712 42.0889C404.112 42.532 405.499 42.7536 406.875 42.7536C409.604 42.7536 411.703 42.0772 413.173 40.7244C414.642 39.3716 415.377 37.2024 415.377 34.2169V1.0496H424.472V35.8613C424.472 38.9168 423.831 41.5874 422.548 43.8732C421.266 46.1357 419.4 47.9083 416.951 49.1912C414.525 50.4507 411.563 51.0804 408.065 51.0804Z" fill="#171717"/>
<path d="M436.734 50.0308V1.0496H469.304V9.02654H445.83V20.887H465.91V28.3391H445.83V41.9839H469.549V50.0308H436.734Z" fill="#171717"/>
<path d="M502.547 51.0804C497.462 51.0804 493.008 50.0308 489.183 47.9316C485.358 45.8324 482.384 42.8819 480.262 39.08C478.14 35.2548 477.078 30.7649 477.078 25.6102C477.078 21.855 477.697 18.4263 478.933 15.3241C480.192 12.1987 481.965 9.49303 484.25 7.20724C486.559 4.89812 489.265 3.12547 492.366 1.88928C495.492 0.629759 498.92 0 502.652 0C506.5 0 509.788 0.489813 512.517 1.46944C515.246 2.42574 517.672 3.79021 519.794 5.56287L515.141 13.015C513.648 11.5922 511.899 10.5426 509.893 9.86622C507.911 9.16649 505.707 8.81662 503.281 8.81662C500.693 8.81662 498.372 9.20147 496.32 9.97118C494.267 10.7409 492.518 11.8605 491.072 13.3299C489.626 14.776 488.518 16.5253 487.749 18.5779C486.979 20.6304 486.594 22.9395 486.594 25.5052C486.594 29.0272 487.282 32.0361 488.658 34.5318C490.034 37.0042 491.993 38.9051 494.535 40.2346C497.078 41.5641 500.098 42.2288 503.596 42.2288C505.952 42.2288 508.249 41.8673 510.488 41.1442C512.75 40.4212 514.885 39.2666 516.89 37.6806L521.088 45.3426C518.756 47.1619 516.051 48.5731 512.972 49.576C509.917 50.579 506.442 51.0804 502.547 51.0804Z" fill="#171717"/>
<path d="M538.038 50.0308V9.37641H524.499V1.0496H560.707V9.37641H547.168V50.0308H538.038Z" fill="#171717"/>
<path d="M568.607 50.0308V1.0496H577.703V50.0308H568.607Z" fill="#171717"/>
<path d="M602.621 50.0308L584.045 1.0496H594.295L607.729 38.1354L620.743 1.0496H630.783L612.592 50.0308H602.621Z" fill="#171717"/>
<path d="M637.14 50.0308V1.0496H669.71V9.02654H646.236V20.887H666.317V28.3391H646.236V41.9839H669.955V50.0308H637.14Z" fill="#171717"/>
<path d="M680.528 50.0308V1.0496H689.624V41.704H710.405V50.0308H680.528Z" fill="#171717"/>
<path d="M723.976 50.0308V29.1088L706.729 1.0496H717.049L728.734 20.3622L740.313 1.0496H750.354L733.107 29.1788V50.0308H723.976Z" fill="#171717"/>
<path d="M747.874 61.2615L744.935 57.2731C746.777 56.4334 748.41 55.3954 749.833 54.1593C751.255 52.9231 752.247 51.7102 752.806 50.5206C751.64 50.5906 750.579 50.4157 749.623 49.9958C748.667 49.576 747.897 48.9579 747.314 48.1416C746.754 47.3252 746.474 46.3689 746.474 45.2727C746.474 43.5933 747.011 42.2405 748.084 41.2142C749.18 40.1646 750.579 39.6398 752.282 39.6398C754.194 39.6398 755.745 40.2812 756.935 41.5641C758.124 42.8236 758.719 44.5496 758.719 46.7421C758.719 48.4448 758.311 50.1358 757.494 51.8151C756.701 53.5178 755.5 55.1622 753.891 56.7483C752.282 58.3343 750.276 59.8387 747.874 61.2615Z" fill="#171717"/>
<path d="M779.473 50.0308L798.259 1.0496H808.405L827.576 50.0308H817.326L813.162 38.9401H793.466L789.443 50.0308H779.473ZM795.705 31.208H810.854L803.157 11.3357L795.705 31.208Z" fill="#171717"/>
<path d="M834.335 50.0308V1.0496H843.151L866.345 34.7767V1.0496H875.196V50.0308H866.38L843.186 15.8839V50.0308H834.335Z" fill="#171717"/>
<path d="M887.562 50.0308V1.0496H903.375C908.296 1.0496 912.646 2.08753 916.424 4.1634C920.203 6.23928 923.153 9.11984 925.275 12.8051C927.398 16.4904 928.459 20.7471 928.459 25.5752C928.459 29.1672 927.852 32.4676 926.64 35.4764C925.427 38.4619 923.701 41.0393 921.462 43.2084C919.246 45.3776 916.599 47.057 913.521 48.2465C910.465 49.4361 907.084 50.0308 903.375 50.0308H887.562ZM896.658 41.5641H902.536C904.984 41.5641 907.212 41.2025 909.218 40.4795C911.223 39.7564 912.949 38.7068 914.395 37.3307C915.865 35.9546 916.984 34.2752 917.754 32.2926C918.547 30.3101 918.943 28.0709 918.943 25.5752C918.943 22.1932 918.255 19.3126 916.879 16.9335C915.526 14.5311 913.614 12.7001 911.142 11.4406C908.693 10.1578 905.824 9.51635 902.536 9.51635H896.658V41.5641Z" fill="#171717"/>
<path d="M963.653 50.0308V9.37641H950.114V1.0496H986.323V9.37641H972.784V50.0308H963.653Z" fill="#171717"/>
<path d="M994.223 50.0308V1.0496H1003.32V20.0823H1025.57V1.0496H1034.66V50.0308H1025.57V28.4091H1003.32V50.0308H994.223Z" fill="#171717"/>
<path d="M1047.04 50.0308V1.0496H1079.61V9.02654H1056.14V20.887H1076.22V28.3391H1056.14V41.9839H1079.86V50.0308H1047.04Z" fill="#171717"/>
<path d="M105.808 154.991L87.2312 106.009H97.4815L110.915 143.095L123.929 106.009H133.97L115.778 154.991H105.808Z" fill="#171717"/>
<path d="M140.326 154.991V106.009H149.422V154.991H140.326Z" fill="#171717"/>
<path d="M161.782 154.991V106.009H194.352V113.986H170.877V125.847H190.958V133.299H170.877V146.944H194.596V154.991H161.782Z" fill="#171717"/>
<path d="M215.21 154.991L200.412 106.009H209.893L219.828 141.976L230.323 106.009H239.629L250.089 141.941L260.025 106.009H269.261L254.497 154.991H245.157L234.871 119.584L224.481 154.991H215.21Z" fill="#171717"/>
<path d="M293.184 156.04C289.685 156.04 286.268 155.539 282.933 154.536C279.621 153.51 276.823 152.052 274.537 150.162L278.945 143.27C280.065 144.296 281.406 145.183 282.968 145.929C284.531 146.675 286.187 147.259 287.936 147.678C289.708 148.075 291.469 148.273 293.219 148.273C296.134 148.273 298.501 147.737 300.32 146.664C302.139 145.568 303.049 143.993 303.049 141.941C303.049 140.331 302.419 138.99 301.16 137.917C299.9 136.821 297.58 135.795 294.198 134.838L289.44 133.474C284.659 132.121 281.196 130.313 279.05 128.051C276.928 125.765 275.866 122.966 275.866 119.654C275.866 117.485 276.31 115.502 277.196 113.706C278.082 111.91 279.33 110.359 280.939 109.053C282.572 107.747 284.496 106.744 286.712 106.044C288.927 105.345 291.341 104.995 293.953 104.995C297.382 104.995 300.565 105.496 303.504 106.499C306.442 107.479 308.845 108.82 310.711 110.523L306.198 117.205C305.218 116.295 304.064 115.502 302.734 114.826C301.405 114.15 299.97 113.636 298.431 113.287C296.892 112.913 295.341 112.727 293.778 112.727C291.936 112.727 290.327 112.983 288.95 113.497C287.574 114.01 286.502 114.744 285.732 115.701C284.962 116.657 284.577 117.823 284.577 119.199C284.577 120.202 284.834 121.077 285.347 121.823C285.884 122.57 286.793 123.258 288.076 123.888C289.359 124.494 291.131 125.135 293.393 125.812L298.361 127.281C303.049 128.657 306.466 130.43 308.611 132.599C310.757 134.745 311.83 137.544 311.83 140.996C311.83 143.958 311.084 146.571 309.591 148.833C308.098 151.095 305.953 152.868 303.154 154.151C300.379 155.41 297.055 156.04 293.184 156.04Z" fill="#171717"/>
<path d="M395.874 154.991V106.009H426.799V114.336H404.969V127.106H424.665V135.153H404.969V154.991H395.874Z" fill="#171717"/>
<path d="M453.679 154.991V106.009H486.249V113.986H462.775V125.847H482.856V133.299H462.775V146.944H486.494V154.991H453.679Z" fill="#171717"/>
<path d="M491.47 154.991L510.256 106.009H520.402L539.573 154.991H529.323L525.16 143.9H505.464L501.44 154.991H491.47ZM507.703 136.168H522.851L515.154 116.295L507.703 136.168Z" fill="#171717"/>
<path d="M567.39 156.04C562.306 156.04 557.851 154.991 554.026 152.891C550.201 150.792 547.228 147.842 545.105 144.04C542.983 140.215 541.922 135.725 541.922 130.57C541.922 126.815 542.54 123.386 543.776 120.284C545.035 117.158 546.808 114.453 549.094 112.167C551.402 109.858 554.108 108.085 557.21 106.849C560.335 105.59 563.764 104.96 567.495 104.96C571.343 104.96 574.632 105.45 577.361 106.429C580.089 107.386 582.515 108.75 584.637 110.523L579.984 117.975C578.492 116.552 576.743 115.502 574.737 114.826C572.754 114.126 570.55 113.776 568.125 113.776C565.536 113.776 563.215 114.161 561.163 114.931C559.111 115.701 557.361 116.82 555.915 118.29C554.469 119.736 553.362 121.485 552.592 123.538C551.822 125.59 551.438 127.899 551.438 130.465C551.438 133.987 552.126 136.996 553.502 139.492C554.878 141.964 556.837 143.865 559.379 145.194C561.921 146.524 564.941 147.189 568.44 147.189C570.795 147.189 573.093 146.827 575.332 146.104C577.594 145.381 579.728 144.226 581.734 142.64L585.932 150.302C583.599 152.122 580.894 153.533 577.815 154.536C574.76 155.539 571.285 156.04 567.39 156.04Z" fill="#171717"/>
<path d="M593.82 154.991V106.009H602.916V125.042H625.166V106.009H634.261V154.991H625.166V133.369H602.916V154.991H593.82Z" fill="#171717"/>
<path d="M710.524 154.991V106.009H719.62V154.991H710.524Z" fill="#171717"/>
<path d="M731.979 154.991V106.009H764.549V113.986H741.075V125.847H761.156V133.299H741.075V146.944H764.794V154.991H731.979Z" fill="#171717"/>
<path d="M785.408 154.991L770.61 106.009H780.091L790.026 141.976L800.521 106.009H809.827L820.287 141.941L830.223 106.009H839.458L824.695 154.991H815.354L805.069 119.584L794.679 154.991H785.408Z" fill="#171717"/>
<path d="M847.044 154.991V106.009H879.614V113.986H856.14V125.847H876.221V133.299H856.14V146.944H879.859V154.991H847.044Z" fill="#171717"/>
<path d="M890.432 154.991V106.009H909.394C912.869 106.009 915.889 106.604 918.454 107.794C921.02 108.96 923.002 110.639 924.402 112.832C925.801 115.024 926.501 117.637 926.501 120.669C926.501 123.094 925.999 125.229 924.996 127.071C923.994 128.914 922.606 130.442 920.833 131.655C919.084 132.867 917.055 133.719 914.746 134.209L928.985 154.991H918.07L905.405 135.818H899.528V154.991H890.432ZM899.528 128.366H908.064C910.98 128.366 913.253 127.759 914.886 126.547C916.519 125.31 917.335 123.514 917.335 121.159C917.335 118.71 916.589 116.844 915.096 115.561C913.603 114.278 911.411 113.636 908.519 113.636H899.528V128.366Z" fill="#171717"/>
<path d="M997.508 154.991L1016.29 106.009H1026.44L1045.61 154.991H1035.36L1031.2 143.9H1011.5L1007.48 154.991H997.508ZM1013.74 136.168H1028.89L1021.19 116.295L1013.74 136.168Z" fill="#171717"/>
<path d="M1052.37 154.991V106.009H1061.19L1084.38 139.736V106.009H1093.23V154.991H1084.42L1061.22 120.844V154.991H1052.37Z" fill="#171717"/>
<path d="M184.85 259.95V219.296H171.311V210.969H207.519V219.296H193.98V259.95H184.85Z" fill="#171717"/>
<path d="M206.679 259.95L225.465 210.969H235.61L254.782 259.95H244.531L240.368 248.86H220.672L216.649 259.95H206.679ZM222.911 241.128H238.059L230.363 221.255L222.911 241.128Z" fill="#171717"/>
<path d="M261.541 259.95V210.969H270.636V234.655L289.668 210.969H300.933L282.951 233.256L303.521 259.95H291.802L276.968 240.183L270.636 247.6V259.95H261.541Z" fill="#171717"/>
<path d="M311.01 259.95V210.969H343.58V218.946H320.106V230.807H340.187V238.259H320.106V251.903H343.825V259.95H311.01Z" fill="#171717"/>
<path d="M421.428 259.95V210.969H430.524V259.95H421.428Z" fill="#171717"/>
<path d="M442.883 259.95V210.969H473.809V219.296H451.979V232.066H471.675V240.113H451.979V259.95H442.883Z" fill="#171717"/>
<path d="M483.88 259.95V210.969H514.806V219.296H492.976V232.066H512.672V240.113H492.976V259.95H483.88Z" fill="#171717"/>
<path d="M524.877 259.95V210.969H557.447V218.946H533.973V230.807H554.054V238.259H533.973V251.903H557.692V259.95H524.877Z" fill="#171717"/>
<path d="M568.265 259.95V210.969H587.227C590.702 210.969 593.722 211.564 596.288 212.753C598.853 213.92 600.835 215.599 602.235 217.792C603.634 219.984 604.334 222.596 604.334 225.629C604.334 228.054 603.832 230.188 602.829 232.031C601.827 233.874 600.439 235.401 598.666 236.614C596.917 237.827 594.888 238.679 592.579 239.168L606.818 259.95H595.903L583.238 240.778H577.361V259.95H568.265ZM577.361 233.326H585.897C588.813 233.326 591.087 232.719 592.719 231.506C594.352 230.27 595.168 228.474 595.168 226.118C595.168 223.669 594.422 221.803 592.929 220.52C591.436 219.238 589.244 218.596 586.352 218.596H577.361V233.326Z" fill="#171717"/>
<path d="M615.275 259.95V210.969H647.845V218.946H624.371V230.807H644.452V238.259H624.371V251.903H648.09V259.95H615.275Z" fill="#171717"/>
<path d="M658.663 259.95V210.969H667.479L690.674 244.696V210.969H699.525V259.95H690.709L667.514 225.803V259.95H658.663Z" fill="#171717"/>
<path d="M720.952 259.95V219.296H707.413V210.969H743.621V219.296H730.083V259.95H720.952Z" fill="#171717"/>
<path d="M768.33 259.95V210.969H799.256V219.296H777.426V232.066H797.122V240.113H777.426V259.95H768.33Z" fill="#171717"/>
<path d="M867.337 259.95V210.969H886.299C889.774 210.969 892.794 211.564 895.36 212.753C897.925 213.92 899.907 215.599 901.307 217.792C902.706 219.984 903.406 222.596 903.406 225.629C903.406 228.054 902.904 230.188 901.902 232.031C900.899 233.874 899.511 235.401 897.738 236.614C895.989 237.827 893.96 238.679 891.651 239.168L905.89 259.95H894.975L882.311 240.778H876.433V259.95H867.337ZM876.433 233.326H884.969C887.885 233.326 890.159 232.719 891.791 231.506C893.424 230.27 894.24 228.474 894.24 226.118C894.24 223.669 893.494 221.803 892.001 220.52C890.508 219.238 888.316 218.596 885.424 218.596H876.433V233.326Z" fill="#171717"/>
<path d="M914.347 259.95V210.969H923.128L942.649 242.947L939.081 242.982L957.797 210.969H966.473V259.95H957.622L957.762 222.865L959.441 223.459L943.629 249.839H937.227L921.029 223.459L922.533 222.865L922.673 259.95H914.347Z" fill="#171717"/>
<path d="M995.186 261C991.688 261 988.271 260.499 984.936 259.496C981.624 258.469 978.826 257.012 976.54 255.122L980.948 248.23C982.067 249.256 983.408 250.142 984.971 250.889C986.534 251.635 988.19 252.218 989.939 252.638C991.711 253.035 993.472 253.233 995.221 253.233C998.137 253.233 1000.5 252.697 1002.32 251.624C1004.14 250.527 1005.05 248.953 1005.05 246.9C1005.05 245.291 1004.42 243.95 1003.16 242.877C1001.9 241.781 999.583 240.754 996.201 239.798L991.443 238.434C986.662 237.081 983.198 235.273 981.053 233.011C978.93 230.725 977.869 227.926 977.869 224.614C977.869 222.445 978.312 220.462 979.199 218.666C980.085 216.87 981.333 215.319 982.942 214.013C984.575 212.707 986.499 211.704 988.714 211.004C990.93 210.304 993.344 209.955 995.956 209.955C999.384 209.955 1002.57 210.456 1005.51 211.459C1008.45 212.439 1010.85 213.78 1012.71 215.482L1008.2 222.165C1007.22 221.255 1006.07 220.462 1004.74 219.786C1003.41 219.109 1001.97 218.596 1000.43 218.246C998.895 217.873 997.344 217.687 995.781 217.687C993.939 217.687 992.329 217.943 990.953 218.456C989.577 218.969 988.504 219.704 987.735 220.66C986.965 221.617 986.58 222.783 986.58 224.159C986.58 225.162 986.837 226.037 987.35 226.783C987.886 227.529 988.796 228.218 990.079 228.847C991.361 229.454 993.134 230.095 995.396 230.772L1000.36 232.241C1005.05 233.617 1008.47 235.39 1010.61 237.559C1012.76 239.705 1013.83 242.504 1013.83 245.956C1013.83 248.918 1013.09 251.53 1011.59 253.793C1010.1 256.055 1007.96 257.828 1005.16 259.111C1002.38 260.37 999.058 261 995.186 261Z" fill="#171717"/>
</svg>
